<svg width="40" height="40" viewBox="0 0 40 40" fill="none" xmlns="http://www.w3.org/2000/svg">
<path d="M19.9953 0C16.0398 0.000937304 12.1735 1.17471 8.88515 3.37291C5.5968 5.57111 3.03408 8.69501 1.52106 12.3496C0.00803244 16.0042 -0.387358 20.0254 0.384881 23.9047C1.15712 27.784 3.06231 31.3472 5.85955 34.1438C8.65679 36.9404 12.2205 38.8447 16.0999 39.616C19.9794 40.3874 24.0005 39.991 27.6548 38.4771C31.309 36.9632 34.4323 34.3998 36.6297 31.1109C38.8271 27.822 40 23.9554 40 20C39.9987 14.6952 37.8906 9.60817 34.1391 5.85757C30.3876 2.10698 25.3 -1.48869e-07 19.9953 0Z" fill="url(#paint0_linear_160_1306)"/>
<path d="M34.6669 10.6597L22.9533 5.07369C22.8458 5.02605 22.724 5.00066 22.5999 5.00001C22.4758 4.99937 22.3535 5.0235 22.2452 5.07003C22.1369 5.11656 22.0462 5.18389 21.9821 5.26542C21.9179 5.34695 21.8825 5.43988 21.8793 5.53508V16.7085C21.8825 16.8037 21.9179 16.8966 21.9821 16.9782C22.0462 17.0597 22.1369 17.127 22.2452 17.1736C22.3535 17.2201 22.4758 17.2442 22.5999 17.2436C22.724 17.2429 22.8458 17.2176 22.9533 17.1699L34.6669 11.5825C34.7674 11.5327 34.85 11.4644 34.9072 11.3838C34.9645 11.3032 34.9944 11.2129 34.9944 11.1211C34.9944 11.0293 34.9645 10.939 34.9072 10.8584C34.85 10.7778 34.7674 10.7095 34.6669 10.6597Z" fill="white"/>
<path d="M34.6669 11.5825L22.9533 17.1699C22.8458 17.2176 22.724 17.2429 22.5999 17.2436C22.4758 17.2442 22.3535 17.2201 22.2452 17.1736C22.1369 17.127 22.0462 17.0597 21.9821 16.9782C21.9179 16.8966 21.8825 16.8037 21.8793 16.7085V15.4274C21.8825 15.5226 21.9179 15.6155 21.9821 15.697C22.0462 15.7785 22.1369 15.8459 22.2452 15.8924C22.3535 15.9389 22.4758 15.9631 22.5999 15.9624C22.724 15.9618 22.8458 15.9364 22.9533 15.8887L34.2892 10.484L34.6669 10.6638C34.7663 10.7138 34.8478 10.782 34.9043 10.8622C34.9607 10.9423 34.9903 11.032 34.9903 11.1232C34.9903 11.2143 34.9607 11.304 34.9043 11.3842C34.8478 11.4644 34.7663 11.5325 34.6669 11.5825Z" fill="#B2B3B4"/>
<path d="M23.9002 8.2251V13.9924C23.9002 13.9924 5.82137 12.07 5.37387 24.4971C5.37387 24.4971 0.76646 8.2251 23.9002 8.2251Z" fill="white"/>
<path d="M21.9294 12.3171C17.1179 12.3693 5.15909 13.8441 5.37389 24.4971C5.73188 14.6103 17.2325 13.807 21.9294 13.8908V12.3171Z" fill="#B2B3B4"/>
<path d="M5.3344 29.3375L17.048 34.9263C17.1555 34.974 17.2773 34.9994 17.4014 35C17.5256 35.0006 17.6478 34.9765 17.7561 34.93C17.8644 34.8834 17.9551 34.8161 18.0192 34.7346C18.0834 34.6531 18.1188 34.5601 18.122 34.4649V23.2887C18.1188 23.1935 18.0834 23.1006 18.0192 23.0191C17.9551 22.9376 17.8644 22.8702 17.7561 22.8237C17.6478 22.7772 17.5256 22.753 17.4014 22.7537C17.2773 22.7543 17.1555 22.7797 17.048 22.8274L5.3344 28.4148C5.23391 28.4646 5.15129 28.5329 5.09408 28.6135C5.03687 28.6941 5.0069 28.7844 5.0069 28.8761C5.0069 28.9679 5.03687 29.0582 5.09408 29.1388C5.15129 29.2194 5.23391 29.2877 5.3344 29.3375Z" fill="white"/>
<path d="M5.33451 28.4134L17.0481 22.8274C17.1556 22.7797 17.2774 22.7543 17.4015 22.7537C17.5257 22.753 17.6479 22.7772 17.7562 22.8237C17.8645 22.8702 17.9552 22.9376 18.0194 23.0191C18.0835 23.1006 18.1189 23.1935 18.1221 23.2887V24.5713C18.1189 24.4761 18.0835 24.3832 18.0194 24.3016C17.9552 24.2201 17.8645 24.1528 17.7562 24.1062C17.6479 24.0597 17.5257 24.0356 17.4015 24.0362C17.2774 24.0369 17.1556 24.0622 17.0481 24.1099L5.71578 29.516L5.33809 29.3362C5.23741 29.2866 5.15452 29.2185 5.097 29.138C5.03947 29.0575 5.00915 28.9673 5.00879 28.8755C5.00844 28.7837 5.03806 28.6934 5.09496 28.6126C5.15186 28.5319 5.23421 28.4634 5.33451 28.4134Z" fill="#B2B3B4"/>
<path d="M16.0977 31.768V26.0007C16.0977 26.0007 34.1765 27.9232 34.624 15.496C34.6275 15.5001 39.2349 31.768 16.0977 31.768Z" fill="white"/>
<path d="M18.0666 27.6801C22.8799 27.6279 34.8369 26.1532 34.6221 15.5001C34.2642 25.3869 22.7635 26.1902 18.0666 26.1078V27.6801Z" fill="#B2B3B4"/>
<defs>
<linearGradient id="paint0_linear_160_1306" x1="-35.1185" y1="86.5118" x2="52.9905" y2="-19.8152" gradientUnits="userSpaceOnUse">
<stop stop-color="#FF001C"/>
<stop offset="0.22" stop-color="#FF009D"/>
<stop offset="0.27" stop-color="#F9049F"/>
<stop offset="0.33" stop-color="#E80FA3"/>
<stop offset="0.41" stop-color="#CC22AA"/>
<stop offset="0.49" stop-color="#A53CB4"/>
<stop offset="0.57" stop-color="#735DC0"/>
<stop offset="0.66" stop-color="#3785CF"/>
<stop offset="0.74" stop-color="#00AADD"/>
<stop offset="1" stop-color="#FFD400"/>
</linearGradient>
</defs>
</svg>
