<svg width="97" height="97" viewBox="0 0 97 97" fill="none" xmlns="http://www.w3.org/2000/svg">
<rect width="97" height="97" fill="#02061C"/>
<path style="mix-blend-mode:color-dodge" d="M68.1774 65.8918C72.0803 61.9903 74.7384 57.019 75.8157 51.6067C76.893 46.1944 76.341 40.5841 74.2296 35.4855C72.1182 30.3869 68.5421 26.029 63.9538 22.9629C59.3655 19.8968 53.9709 18.2603 48.4524 18.2603C42.9339 18.2603 37.5394 19.8968 32.9511 22.9629C28.3627 26.029 24.7867 30.3869 22.6753 35.4855C20.5639 40.5841 20.0119 46.1944 21.0892 51.6067C22.1665 57.019 24.8246 61.9903 28.7274 65.8918C33.9594 71.1221 41.0545 74.0603 48.4524 74.0603C55.8504 74.0603 62.9454 71.1221 68.1774 65.8918ZM35.2574 32.9918C37.8671 30.3823 41.192 28.6052 44.8117 27.8853C48.4313 27.1654 52.1832 27.535 55.5928 28.9473C59.0024 30.3597 61.9166 32.7514 63.967 35.82C66.0173 38.8886 67.1117 42.4963 67.1117 46.1868C67.1117 49.8774 66.0173 53.485 63.967 56.5536C61.9166 59.6222 59.0024 62.0139 55.5928 63.4263C52.1832 64.8387 48.4313 65.2083 44.8117 64.4883C41.192 63.7684 37.8671 61.9914 35.2574 59.3818C33.5246 57.6491 32.15 55.5919 31.2122 53.3279C30.2744 51.0639 29.7917 48.6374 29.7917 46.1868C29.7917 43.7363 30.2744 41.3097 31.2122 39.0457C32.15 36.7817 33.5246 34.7246 35.2574 32.9918Z" fill="url(#paint0_linear_370_25)"/>
<path style="mix-blend-mode:color-dodge" d="M37.2974 55.8821C35.1629 53.5538 33.9152 50.5491 33.7726 47.3937C33.63 44.2384 34.6016 41.1333 36.5174 38.6221L31.7674 33.8721C28.6078 37.6553 26.9461 42.4662 27.0972 47.3929C27.2484 52.3196 29.2019 57.0197 32.5874 60.6021L37.2974 55.8821Z" fill="url(#paint1_linear_370_25)"/>
<path style="mix-blend-mode:color-dodge" d="M34.7574 27.4622C39.0827 24.2977 44.3709 22.7297 49.722 23.025C55.0732 23.3204 60.1567 25.4609 64.1074 29.0822L72.2174 20.9922C66.1119 15.2231 58.1181 11.8692 49.724 11.5546C41.33 11.24 33.1076 13.9863 26.5874 19.2822L34.7574 27.4622Z" fill="url(#paint2_linear_370_25)"/>
<path style="mix-blend-mode:color-dodge" d="M75.3274 67.9922C80.3947 61.7691 83.144 53.9797 83.1057 45.9546C83.0674 37.9295 80.2438 30.1666 75.1174 23.9922L66.9874 32.2122C69.9813 36.1888 71.6162 41.0233 71.6504 46.0008C71.6846 50.9783 70.1164 55.8348 67.1774 59.8522L75.3274 67.9922Z" fill="url(#paint3_linear_370_25)"/>
<path style="mix-blend-mode:color-dodge" d="M20.9874 25.7021C15.9187 31.9241 13.1677 39.7129 13.2042 47.738C13.2406 55.7631 16.0624 63.5266 21.1874 69.7021L29.3574 61.5421C26.362 57.5662 24.7262 52.7315 24.6919 47.7536C24.6577 42.7756 26.2269 37.9189 29.1674 33.9021L20.9874 25.7021Z" fill="url(#paint4_linear_370_25)"/>
<path style="mix-blend-mode:color-dodge" d="M76.1274 79.9921L65.9874 69.8521C60.9977 73.6475 54.9049 75.7092 48.6358 75.7237C42.3667 75.7381 36.2645 73.7045 31.2574 69.9321L21.1374 80.0721C28.8696 86.4835 38.6023 89.9858 48.6468 89.9711C58.6914 89.9565 68.4139 86.426 76.1274 79.9921Z" fill="url(#paint5_linear_370_25)"/>
<path style="mix-blend-mode:color-dodge" d="M68.1774 65.8918C72.0803 61.9903 74.7384 57.019 75.8157 51.6067C76.893 46.1944 76.341 40.5841 74.2296 35.4855C72.1182 30.3869 68.5421 26.029 63.9538 22.9629C59.3655 19.8968 53.9709 18.2603 48.4524 18.2603C42.9339 18.2603 37.5394 19.8968 32.9511 22.9629C28.3627 26.029 24.7867 30.3869 22.6753 35.4855C20.5639 40.5841 20.0119 46.1944 21.0892 51.6067C22.1665 57.019 24.8246 61.9903 28.7274 65.8918C33.9594 71.1221 41.0545 74.0603 48.4524 74.0603C55.8504 74.0603 62.9454 71.1221 68.1774 65.8918ZM35.2574 32.9918C37.8671 30.3823 41.192 28.6052 44.8117 27.8853C48.4313 27.1654 52.1832 27.535 55.5928 28.9473C59.0024 30.3597 61.9166 32.7514 63.967 35.82C66.0173 38.8886 67.1117 42.4963 67.1117 46.1868C67.1117 49.8774 66.0173 53.485 63.967 56.5536C61.9166 59.6222 59.0024 62.0139 55.5928 63.4263C52.1832 64.8387 48.4313 65.2083 44.8117 64.4883C41.192 63.7684 37.8671 61.9914 35.2574 59.3818C33.5246 57.6491 32.15 55.5919 31.2122 53.3279C30.2744 51.0639 29.7917 48.6374 29.7917 46.1868C29.7917 43.7363 30.2744 41.3097 31.2122 39.0457C32.15 36.7817 33.5246 34.7246 35.2574 32.9918Z" fill="url(#paint6_linear_370_25)"/>
<path style="mix-blend-mode:color-dodge" d="M37.2974 55.8821C35.1629 53.5538 33.9152 50.5491 33.7726 47.3937C33.63 44.2384 34.6016 41.1333 36.5174 38.6221L31.7674 33.8721C28.6078 37.6553 26.9461 42.4662 27.0972 47.3929C27.2484 52.3196 29.2019 57.0197 32.5874 60.6021L37.2974 55.8821Z" fill="url(#paint7_linear_370_25)"/>
<path style="mix-blend-mode:color-dodge" d="M64.8874 59.5818C68.0468 55.6992 69.7617 50.841 69.7398 45.8354C69.7179 40.8298 67.9606 35.9867 64.7674 32.1318L59.6674 37.2318C61.5357 39.7118 62.5561 42.7272 62.5777 45.832C62.5993 48.9368 61.621 51.9662 59.7874 54.4718L64.8874 59.5818Z" fill="url(#paint8_linear_370_25)"/>
<path style="mix-blend-mode:color-dodge" d="M69.5874 73.4422L61.8774 65.7222C58.0768 68.615 53.4354 70.1873 48.6591 70.2C43.8829 70.2126 39.2332 68.6649 35.4174 65.7922L27.6974 73.5122C33.5889 78.3943 41.0035 81.0602 48.655 81.0474C56.3065 81.0346 63.7122 78.344 69.5874 73.4422Z" fill="url(#paint9_linear_370_25)"/>
<path style="mix-blend-mode:color-dodge" d="M34.1374 12.7822C27.2023 15.4604 21.217 20.135 16.9384 26.2147C12.6598 32.2944 10.2801 39.5064 10.1002 46.9385C9.92026 54.3707 11.9482 61.6893 15.9275 67.969C19.9069 74.2486 25.659 79.2073 32.4564 82.218C39.2538 85.2287 46.7914 86.1561 54.1159 84.8831C61.4405 83.6101 68.223 80.1937 73.606 75.0661C78.989 69.9384 82.7306 63.3297 84.3578 56.0756C85.9849 48.8215 85.4245 41.2478 82.7474 34.3122C80.9697 29.7065 78.3021 25.4961 74.8969 21.9215C71.4918 18.3468 67.4159 15.4779 62.902 13.4786C58.388 11.4793 53.5244 10.3888 48.589 10.2693C43.6535 10.1498 38.7429 11.0037 34.1374 12.7822ZM56.7374 71.3122C52.0972 73.1045 47.0297 73.4805 42.1758 72.3927C37.3219 71.3049 32.8996 68.8022 29.4681 65.201C26.0366 61.5998 23.7501 57.0619 22.8977 52.1611C22.0453 47.2604 22.6653 42.2169 24.6794 37.6686C26.6934 33.1202 30.011 29.2713 34.2125 26.6084C38.4141 23.9456 43.311 22.5885 48.2838 22.7088C53.2567 22.8291 58.0822 24.4213 62.1501 27.2842C66.218 30.147 69.3457 34.1518 71.1374 38.7922C73.5372 45.0144 73.3684 51.9348 70.6683 58.0327C67.9681 64.1305 62.9575 68.9069 56.7374 71.3122Z" fill="url(#paint10_linear_370_25)"/>
<path style="mix-blend-mode:color-dodge" d="M66.7274 41.9919C68.085 46.0284 67.9816 50.4134 66.4353 54.3815C64.8891 58.3495 61.9982 61.6483 58.2674 63.7019L61.5274 72.1319C67.4924 69.1923 72.1711 64.1658 74.6761 58.0056C77.1811 51.8454 77.3381 44.9802 75.1174 38.7119L66.7274 41.9919Z" fill="url(#paint11_linear_370_25)"/>
<path style="mix-blend-mode:color-dodge" d="M54.3474 78.3618C47.2926 79.9011 39.9224 78.9489 33.4903 75.6673C27.0583 72.3856 21.9617 66.9772 19.0674 60.3618L4.6474 65.9218C9.02971 76.3664 17.0593 84.8617 27.2405 89.8254C37.4216 94.789 49.0599 95.8824 59.9874 92.9018L54.3474 78.3618Z" fill="url(#paint12_linear_370_25)"/>
<path style="mix-blend-mode:color-dodge" d="M26.4974 6.24219C16.8688 11.1486 9.23978 19.2424 4.91077 29.1441C0.581767 39.0457 -0.17926 50.1422 2.75742 60.5422L17.2674 54.9922C15.7386 48.4513 16.3574 41.5919 19.0321 35.4301C21.7068 29.2684 26.2951 24.1321 32.1174 20.7822L26.4974 6.24219Z" fill="url(#paint13_linear_370_25)"/>
<path style="mix-blend-mode:color-dodge" d="M70.3174 87.9922C79.9373 83.0892 87.5611 75.0042 91.8912 65.1132C96.2214 55.2222 96.9904 44.1363 94.0674 33.7422L79.5474 39.3422C81.068 45.8733 80.446 52.7205 77.7734 58.8707C75.1008 65.0209 70.5196 70.1476 64.7074 73.4922L70.3174 87.9922Z" fill="url(#paint14_linear_370_25)"/>
<path style="mix-blend-mode:color-dodge" d="M34.1374 12.7822C27.2023 15.4604 21.217 20.135 16.9384 26.2147C12.6598 32.2944 10.2801 39.5064 10.1002 46.9385C9.92026 54.3707 11.9482 61.6893 15.9275 67.969C19.9069 74.2486 25.659 79.2073 32.4564 82.218C39.2538 85.2287 46.7914 86.1561 54.1159 84.8831C61.4405 83.6101 68.223 80.1937 73.606 75.0661C78.989 69.9384 82.7306 63.3297 84.3578 56.0756C85.9849 48.8215 85.4245 41.2478 82.7474 34.3122C80.9697 29.7065 78.3021 25.4961 74.8969 21.9215C71.4918 18.3468 67.4159 15.4779 62.902 13.4786C58.388 11.4793 53.5244 10.3888 48.589 10.2693C43.6535 10.1498 38.7429 11.0037 34.1374 12.7822ZM56.7374 71.3122C52.0972 73.1045 47.0297 73.4805 42.1758 72.3927C37.3219 71.3049 32.8996 68.8022 29.4681 65.201C26.0366 61.5998 23.7501 57.0619 22.8977 52.1611C22.0453 47.2604 22.6653 42.2169 24.6794 37.6686C26.6934 33.1202 30.011 29.2713 34.2125 26.6084C38.4141 23.9456 43.311 22.5885 48.2838 22.7088C53.2567 22.8291 58.0822 24.4213 62.1501 27.2842C66.218 30.147 69.3457 34.1518 71.1374 38.7922C73.5372 45.0144 73.3684 51.9348 70.6683 58.0327C67.9681 64.1305 62.9575 68.9069 56.7374 71.3122Z" fill="url(#paint15_linear_370_25)"/>
<path style="mix-blend-mode:color-dodge" d="M66.7274 41.9919C68.085 46.0284 67.9816 50.4134 66.4353 54.3815C64.8891 58.3495 61.9982 61.6483 58.2674 63.7019L61.5274 72.1319C67.4924 69.1923 72.1711 64.1658 74.6761 58.0056C77.1811 51.8454 77.3381 44.9802 75.1174 38.7119L66.7274 41.9919Z" fill="url(#paint16_linear_370_25)"/>
<path style="mix-blend-mode:color-dodge" d="M34.7474 22.3521C28.7386 25.4124 23.9771 30.462 21.2747 36.64C18.5722 42.8181 18.0961 49.7422 19.9274 56.2321L28.9874 52.7321C28.0372 48.6566 28.4247 44.3834 30.0925 40.5453C31.7603 36.7072 34.6197 33.5083 38.2474 31.4221L34.7474 22.3521Z" fill="url(#paint17_linear_370_25)"/>
<path style="mix-blend-mode:color-dodge" d="M36.5174 2.70204L41.8174 16.422C48.0795 14.9309 54.6574 15.5268 60.5496 18.1191C66.4418 20.7114 71.3256 25.158 74.4574 30.782L88.1774 25.482C83.5842 16.2478 75.9026 8.91354 66.4658 4.75232C57.0291 0.591105 46.4332 -0.134298 36.5174 2.70204Z" fill="url(#paint18_linear_370_25)"/>
<defs>
<linearGradient id="paint0_linear_370_25" x1="93.8179" y1="98.1766" x2="15.1876" y2="8.00629" gradientUnits="userSpaceOnUse">
<stop stop-opacity="0"/>
<stop offset="1" stop-color="white"/>
</linearGradient>
<linearGradient id="paint1_linear_370_25" x1="3.37826" y1="72.3347" x2="68.5028" y2="15.554" gradientUnits="userSpaceOnUse">
<stop stop-opacity="0"/>
<stop offset="1" stop-color="white"/>
</linearGradient>
<linearGradient id="paint2_linear_370_25" x1="-28.3779" y1="88.4639" x2="83.5854" y2="-9.17345" gradientUnits="userSpaceOnUse">
<stop stop-opacity="0"/>
<stop offset="1" stop-color="white"/>
</linearGradient>
<linearGradient id="paint3_linear_370_25" x1="-4.64738" y1="115.673" x2="107.316" y2="18.036" gradientUnits="userSpaceOnUse">
<stop stop-opacity="0"/>
<stop offset="1" stop-color="white"/>
</linearGradient>
<linearGradient id="paint4_linear_370_25" x1="100.994" y1="-21.9599" x2="-10.9697" y2="75.6774" gradientUnits="userSpaceOnUse">
<stop stop-opacity="0"/>
<stop offset="1" stop-color="white"/>
</linearGradient>
<linearGradient id="paint5_linear_370_25" x1="-15.5157" y1="135.31" x2="123.424" y2="14.1468" gradientUnits="userSpaceOnUse">
<stop stop-opacity="0"/>
<stop offset="1" stop-color="white"/>
</linearGradient>
<linearGradient id="paint6_linear_370_25" x1="93.8179" y1="98.1766" x2="15.1876" y2="8.00629" gradientUnits="userSpaceOnUse">
<stop stop-opacity="0"/>
<stop offset="1" stop-color="white"/>
</linearGradient>
<linearGradient id="paint7_linear_370_25" x1="3.37826" y1="72.3347" x2="68.5028" y2="15.554" gradientUnits="userSpaceOnUse">
<stop stop-opacity="0"/>
<stop offset="1" stop-color="white"/>
</linearGradient>
<linearGradient id="paint8_linear_370_25" x1="14.989" y1="89.305" x2="84.8511" y2="28.3807" gradientUnits="userSpaceOnUse">
<stop stop-opacity="0"/>
<stop offset="1" stop-color="white"/>
</linearGradient>
<linearGradient id="paint9_linear_370_25" x1="-0.235076" y1="115.588" x2="105.626" y2="23.2757" gradientUnits="userSpaceOnUse">
<stop stop-opacity="0"/>
<stop offset="1" stop-color="white"/>
</linearGradient>
<linearGradient id="paint10_linear_370_25" x1="19.9275" y1="-40.867" x2="67.6056" y2="112.661" gradientUnits="userSpaceOnUse">
<stop stop-opacity="0"/>
<stop offset="1" stop-color="white"/>
</linearGradient>
<linearGradient id="paint11_linear_370_25" x1="118.07" y1="39.8404" x2="7.20179" y2="74.2666" gradientUnits="userSpaceOnUse">
<stop stop-opacity="0"/>
<stop offset="1" stop-color="white"/>
</linearGradient>
<linearGradient id="paint12_linear_370_25" x1="165.876" y1="37.2576" x2="-24.7776" y2="96.4623" gradientUnits="userSpaceOnUse">
<stop stop-opacity="0"/>
<stop offset="1" stop-color="white"/>
</linearGradient>
<linearGradient id="paint13_linear_370_25" x1="151.489" y1="-9.07942" x2="-39.1644" y2="50.1253" gradientUnits="userSpaceOnUse">
<stop stop-opacity="0"/>
<stop offset="1" stop-color="white"/>
</linearGradient>
<linearGradient id="paint14_linear_370_25" x1="-53.6822" y1="104.147" x2="136.962" y2="44.9458" gradientUnits="userSpaceOnUse">
<stop stop-opacity="0"/>
<stop offset="1" stop-color="white"/>
</linearGradient>
<linearGradient id="paint15_linear_370_25" x1="19.9275" y1="-40.867" x2="67.6056" y2="112.661" gradientUnits="userSpaceOnUse">
<stop stop-opacity="0"/>
<stop offset="1" stop-color="white"/>
</linearGradient>
<linearGradient id="paint16_linear_370_25" x1="118.07" y1="39.8404" x2="7.20179" y2="74.2666" gradientUnits="userSpaceOnUse">
<stop stop-opacity="0"/>
<stop offset="1" stop-color="white"/>
</linearGradient>
<linearGradient id="paint17_linear_370_25" x1="113.029" y1="12.6734" x2="-5.93459" y2="49.613" gradientUnits="userSpaceOnUse">
<stop stop-opacity="0"/>
<stop offset="1" stop-color="white"/>
</linearGradient>
<linearGradient id="paint18_linear_370_25" x1="146.013" y1="-11.3761" x2="-34.2339" y2="44.6021" gradientUnits="userSpaceOnUse">
<stop stop-opacity="0"/>
<stop offset="1" stop-color="white"/>
</linearGradient>
</defs>
</svg>
