<svg width="19" height="19" viewBox="0 0 19 19" fill="none" xmlns="http://www.w3.org/2000/svg">
<path d="M0 9.01562C0 4.0359 4.0359 0 9.01562 0C13.9953 0 18.0312 4.0359 18.0312 9.01562C18.0312 13.9953 13.9953 18.0312 9.01562 18.0312C4.0359 18.0312 0 13.9953 0 9.01562Z" fill="#16E243"/>
<path d="M14.0803 6.4544C14.387 6.74065 14.387 7.20321 14.0803 7.48945L7.79967 13.3517C7.493 13.6379 6.99742 13.6379 6.69075 13.3517L3.54975 10.4206C3.24318 10.1343 3.24318 9.67176 3.54975 9.38552C3.85638 9.09928 4.35343 9.09928 4.6601 9.38552L7.22313 11.7968L12.9714 6.4544C13.278 6.1677 13.7736 6.1677 14.0803 6.4544Z" fill="white"/>
</svg>
