<svg width="888" height="321" viewBox="0 0 888 321" fill="none" xmlns="http://www.w3.org/2000/svg">
<g style="mix-blend-mode:overlay">
<path d="M888 0H0V321H888V0Z" fill="#4AFFF6"/>
</g>
<g style="mix-blend-mode:soft-light">
<path d="M1 56.7985L601.421 54.6575L640.767 85.1417C643.238 87.2826 646.63 88.5 650.118 88.5L887.13 90.641L888 0H1V56.7985Z" fill="#4AFFF6"/>
</g>
<path d="M19 29L621.5 29L662.587 65H866" stroke="#4AFFF6" stroke-width="0.5" stroke-miterlimit="10"/>
<path d="M19 267.376V303.109H54.6849" stroke="#4AFFF6" stroke-width="0.5" stroke-miterlimit="10"/>
<path d="M869.509 267.812V303.497H833.824" stroke="#4AFFF6" stroke-width="0.5" stroke-miterlimit="10"/>
<path d="M812.983 170.17C820.002 182.704 822.306 197.336 819.478 211.421C816.65 225.505 808.877 238.114 797.564 246.967C786.25 255.821 772.143 260.335 757.791 259.695C743.44 259.054 729.791 253.3 719.311 243.474C708.832 233.648 702.213 220.397 700.652 206.116C699.09 191.835 702.689 177.467 710.797 165.608C718.905 153.749 730.989 145.182 744.862 141.455C758.736 137.728 773.486 139.087 786.445 145.286" stroke="#4AFFF6" stroke-width="0.75" stroke-miterlimit="10"/>
<path d="M813.086 146.604L808.642 171.384C803.729 162.949 796.702 155.94 788.254 151.049L813.086 146.604Z" fill="#4AFFF6"/>
<g style="mix-blend-mode:overlay">
<path d="M760.425 252.08C789.366 252.08 812.828 228.619 812.828 199.678C812.828 170.737 789.366 147.276 760.425 147.276C731.484 147.276 708.023 170.737 708.023 199.678C708.023 228.619 731.484 252.08 760.425 252.08Z" fill="#4AFFF6"/>
</g>
<g style="mix-blend-mode:overlay">
<path d="M760.658 240.169C783.02 240.169 801.148 222.041 801.148 199.678C801.148 177.316 783.02 159.188 760.658 159.188C738.295 159.188 720.167 177.316 720.167 199.678C720.167 222.041 738.295 240.169 760.658 240.169Z" fill="#4AFFF6"/>
</g>
<path d="M846.445 219.264L846.936 217.456L847.194 215.621L847.762 211.952L854.662 212.934L854.067 216.887L853.757 218.851L853.266 220.815L846.445 219.264Z" fill="#4AFFF6"/>
<path d="M843.731 228.722C844.193 227.573 844.59 226.4 844.92 225.208L851.612 227.223C851.302 228.541 850.734 229.807 850.321 231.021L843.731 228.722Z" fill="#4AFFF6"/>
<path d="M848.408 205.854L848.589 202.133L855.566 202.34L855.359 206.345L848.408 205.854Z" fill="#4AFFF6"/>
<path d="M845.411 223.373L845.876 221.564L852.62 223.295L852.129 225.233L845.411 223.373Z" fill="#4AFFF6"/>
<path d="M848.073 209.833C848.19 209.227 848.267 208.614 848.305 207.999L855.23 208.645C855.213 209.312 855.144 209.977 855.023 210.634L848.073 209.833Z" fill="#4AFFF6"/>
<path d="M842.905 230.996L843.215 230.117L849.778 232.52L849.416 233.45L842.905 230.996Z" fill="#4AFFF6"/>
<path d="M848.667 200.608L848.719 199.678H855.695L855.644 200.66L848.667 200.608Z" fill="#4AFFF6"/>
<path d="M833.938 248.541L837.814 242.21L843.912 245.569L839.752 252.417L833.938 248.541Z" fill="#4AFFF6"/>
<path d="M828.047 256.448C828.9 255.543 829.546 254.484 830.321 253.502L835.851 257.765C835.024 258.799 834.3 259.936 833.267 260.918L828.047 256.448Z" fill="#4AFFF6"/>
<path d="M840.502 236.68C841.081 235.582 841.599 234.452 842.052 233.295L848.512 235.879C848.015 237.131 847.455 238.355 846.832 239.549L840.502 236.68Z" fill="#4AFFF6"/>
<path d="M831.458 251.977L832.569 250.479L838.279 254.51L837.065 256.112L831.458 251.977Z" fill="#4AFFF6"/>
<path d="M838.77 240.298L839.571 238.618L845.85 241.693L844.972 243.502L838.77 240.298Z" fill="#4AFFF6"/>
<path d="M826.419 258.23L827.039 257.533L832.31 262.106L831.639 262.856L826.419 258.23Z" fill="#4AFFF6"/>
<path d="M842.569 231.848L842.905 230.996L849.416 233.45L849.08 234.406L842.569 231.848Z" fill="#4AFFF6"/>
<path d="M811.794 271.434C813.732 269.91 815.851 268.592 817.66 266.887L822.181 272.055C820.243 273.889 817.97 275.31 815.851 276.964L811.794 271.434Z" fill="#4AFFF6"/>
<path d="M803.5 276.758L806.678 274.82L810.347 280.763L806.91 282.83L803.5 276.758Z" fill="#4AFFF6"/>
<path d="M822.207 262.752C823.112 261.935 823.974 261.073 824.791 260.168L829.959 264.949C829.029 265.905 828.202 266.99 827.194 267.843L822.207 262.752Z" fill="#4AFFF6"/>
<path d="M808.306 273.838C808.822 273.502 809.365 273.217 809.882 272.856L813.809 278.644L812.104 279.703L808.306 273.838Z" fill="#4AFFF6"/>
<path d="M819.236 265.44L820.605 264.174L825.386 269.29L823.887 270.634L819.236 265.44Z" fill="#4AFFF6"/>
<path d="M801.381 277.92L802.207 277.507L805.541 283.656L804.636 284.096L801.381 277.92Z" fill="#4AFFF6"/>
<path d="M825.799 258.902L826.419 258.23L831.639 262.856L830.967 263.579L825.799 258.902Z" fill="#4AFFF6"/>
<path d="M783.009 285L786.6 284.096L790.089 282.804L792.44 289.367L788.668 290.763L784.792 291.744L783.009 285Z" fill="#4AFFF6"/>
<path d="M773.371 286.99L777.04 286.421L778.332 293.295L774.378 293.889L773.371 286.99Z" fill="#4AFFF6"/>
<path d="M795.799 280.582L799.158 278.98L802.233 285.233L798.616 286.99L795.799 280.582Z" fill="#4AFFF6"/>
<path d="M778.9 286.06L780.709 285.594L782.311 292.39L780.373 292.881L778.9 286.06Z" fill="#4AFFF6"/>
<path d="M792.104 282.08L793.836 281.434L796.497 287.894L794.611 288.592L792.104 282.08Z" fill="#4AFFF6"/>
<path d="M770.968 287.351L771.898 287.222L772.802 294.147L771.82 294.276L770.968 287.351Z" fill="#4AFFF6"/>
<path d="M800.554 278.308L801.381 277.92L804.636 284.096L803.732 284.509L800.554 278.308Z" fill="#4AFFF6"/>
<path d="M751.252 287.61L758.668 287.972L758.539 294.948L750.529 294.535L751.252 287.61Z" fill="#4AFFF6"/>
<path d="M741.511 286.008C742.694 286.288 743.893 286.496 745.102 286.628L743.914 293.527C742.596 293.269 741.33 293.191 739.96 292.804L741.511 286.008Z" fill="#4AFFF6"/>
<path d="M764.818 287.817L768.513 287.636L769.159 294.587L765.154 294.793L764.818 287.817Z" fill="#4AFFF6"/>
<path d="M747.066 286.964L748.901 287.222L747.996 294.147L746.032 293.863L747.066 286.964Z" fill="#4AFFF6"/>
<path d="M760.813 288.023L762.673 287.946L762.854 294.922L760.839 295.026L760.813 288.023Z" fill="#4AFFF6"/>
<path d="M739.185 285.414L740.089 285.646L738.487 292.442L737.531 292.184L739.185 285.414Z" fill="#4AFFF6"/>
<path d="M770.063 287.507L770.968 287.352L771.82 294.277L770.813 294.432L770.063 287.507Z" fill="#4AFFF6"/>
<path d="M720.71 278.592L724.043 280.22C725.14 280.792 726.28 281.276 727.454 281.667L724.87 288.153C723.601 287.74 722.366 287.23 721.175 286.628L717.557 284.871L720.71 278.592Z" fill="#4AFFF6"/>
<path d="M712.157 273.708L715.335 275.646L711.769 281.641L708.333 279.574L712.157 273.708Z" fill="#4AFFF6"/>
<path d="M733.216 283.786C734.395 284.185 735.594 284.521 736.808 284.793L734.947 291.512C733.643 291.229 732.357 290.866 731.097 290.426L733.216 283.786Z" fill="#4AFFF6"/>
<path d="M716.963 276.628C717.473 276.978 718.009 277.289 718.565 277.558L715.258 283.708C714.658 283.413 714.079 283.076 713.526 282.7L716.963 276.628Z" fill="#4AFFF6"/>
<path d="M729.469 282.416L731.227 283.036L728.901 289.625L727.041 288.954L729.469 282.416Z" fill="#4AFFF6"/>
<path d="M710.142 272.39L710.891 272.933L706.963 278.721L706.162 278.127L710.142 272.39Z" fill="#4AFFF6"/>
<path d="M738.281 285.181L739.185 285.413L737.531 292.183L736.549 291.925L738.281 285.181Z" fill="#4AFFF6"/>
<path d="M695.31 259.393L697.816 262.158L700.555 264.638L695.826 269.781L692.881 267.093L690.168 264.122L695.31 259.393Z" fill="#4AFFF6"/>
<path d="M689.057 251.796L691.279 254.768L685.827 259.109L683.424 255.905L689.057 251.796Z" fill="#4AFFF6"/>
<path d="M705.18 268.696L708.152 270.918L704.043 276.525L700.813 274.122L705.18 268.696Z" fill="#4AFFF6"/>
<path d="M692.467 256.267L693.708 257.636L688.436 262.21L687.093 260.737L692.467 256.267Z" fill="#4AFFF6"/>
<path d="M702.131 266.086L703.527 267.326L699.031 272.675L697.532 271.331L702.131 266.086Z" fill="#4AFFF6"/>
<path d="M687.61 249.859L688.178 250.608L682.467 254.639L681.873 253.838L687.61 249.859Z" fill="#4AFFF6"/>
<path d="M709.392 271.822L710.142 272.39L706.162 278.127L705.361 277.533L709.392 271.822Z" fill="#4AFFF6"/>
<path d="M678.307 232.365C678.694 233.541 679.178 234.682 679.754 235.776L681.382 239.135L675.129 242.365L673.398 238.748C672.783 237.565 672.256 236.339 671.822 235.078L678.307 232.365Z" fill="#4AFFF6"/>
<path d="M675.181 223.141C675.542 224.329 675.723 225.57 676.188 226.706L669.548 228.851C669.057 227.611 668.824 226.267 668.462 225.001L675.181 223.141Z" fill="#4AFFF6"/>
<path d="M684.328 244.613L686.24 247.791L680.4 251.616L678.307 248.179L684.328 244.613Z" fill="#4AFFF6"/>
<path d="M676.834 228.515L677.48 230.246L670.943 232.675L670.245 230.789L676.834 228.515Z" fill="#4AFFF6"/>
<path d="M682.312 241.177C682.563 241.738 682.866 242.274 683.217 242.779L677.119 246.189C676.761 245.63 676.433 245.052 676.137 244.458L682.312 241.177Z" fill="#4AFFF6"/>
<path d="M674.586 220.815L674.819 221.719L668.075 223.451L667.816 222.469L674.586 220.815Z" fill="#4AFFF6"/>
<path d="M687.041 249.109L687.609 249.858L681.873 253.838L681.279 253.011L687.041 249.109Z" fill="#4AFFF6"/>
<path d="M672.028 201.254L672.39 208.696L665.439 209.394L665.052 201.384L672.028 201.254Z" fill="#4AFFF6"/>
<path d="M672.364 191.41L672.183 195.131L665.207 194.769L665.413 190.764L672.364 191.41Z" fill="#4AFFF6"/>
<path d="M673.32 214.768C673.471 215.993 673.686 217.21 673.966 218.412L667.145 219.885C666.835 218.582 666.602 217.261 666.447 215.931L673.32 214.768Z" fill="#4AFFF6"/>
<path d="M672.08 197.017L671.977 198.877L665 198.826L665.103 196.81L672.08 197.017Z" fill="#4AFFF6"/>
<path d="M672.726 210.815L673.01 212.65L666.085 213.658L665.801 211.668L672.726 210.815Z" fill="#4AFFF6"/>
<path d="M672.648 189.032L672.493 189.937L665.568 189.187L665.724 188.18L672.648 189.032Z" fill="#4AFFF6"/>
<path d="M674.354 219.911L674.586 220.815L667.817 222.469L667.558 221.513L674.354 219.911Z" fill="#4AFFF6"/>
<path d="M677.196 169.86L675.93 173.348L675 176.94L668.256 175.131L669.264 171.255L670.633 167.482L677.196 169.86Z" fill="#4AFFF6"/>
<path d="M681.046 160.79L679.444 164.123L673.036 161.307L674.793 157.715L681.046 160.79Z" fill="#4AFFF6"/>
<path d="M673.579 182.908L673.01 186.578L666.111 185.544L666.731 181.591L673.579 182.908Z" fill="#4AFFF6"/>
<path d="M678.669 165.88L678.023 167.611L671.512 165.079L672.209 163.193L678.669 165.88Z" fill="#4AFFF6"/>
<path d="M674.483 179.007L673.992 180.815L667.196 179.317L667.687 177.379L674.483 179.007Z" fill="#4AFFF6"/>
<path d="M682.08 158.619L681.692 159.446L675.465 156.268L675.904 155.364L682.08 158.619Z" fill="#4AFFF6"/>
<path d="M672.778 188.102L672.648 189.032L665.724 188.18L665.853 187.198L672.778 188.102Z" fill="#4AFFF6"/>
<path d="M693.165 142.315C691.46 144.098 690.142 146.217 688.591 148.155L682.933 144.072C684.586 141.979 686.008 139.705 687.868 137.767L693.165 142.315Z" fill="#4AFFF6"/>
<path d="M699.987 135.209C699.108 136.061 698.1 136.811 697.403 137.793L692.416 132.909C693.294 131.901 694.379 131.074 695.336 130.17L699.987 135.209Z" fill="#4AFFF6"/>
<path d="M685.206 153.271L683.269 156.449L677.196 153.038L679.263 149.601L685.206 153.271Z" fill="#4AFFF6"/>
<path d="M696.007 139.162L694.767 140.532L689.599 135.855L690.943 134.382L696.007 139.162Z" fill="#4AFFF6"/>
<path d="M687.325 149.886C686.951 150.376 686.614 150.895 686.318 151.436L680.504 147.612C680.832 147.031 681.194 146.47 681.589 145.932L687.325 149.886Z" fill="#4AFFF6"/>
<path d="M701.77 133.581L701.098 134.201L696.395 129.033L697.144 128.361L701.77 133.581Z" fill="#4AFFF6"/>
<path d="M682.493 157.767L682.08 158.619L675.904 155.364L676.344 154.459L682.493 157.767Z" fill="#4AFFF6"/>
<path d="M717.842 122.16L711.511 126.01L707.635 120.196L714.483 116.036L717.842 122.16Z" fill="#4AFFF6"/>
<path d="M726.756 117.922C725.6 118.375 724.47 118.893 723.371 119.472L720.451 113.116C721.636 112.502 722.852 111.95 724.095 111.462L726.756 117.922Z" fill="#4AFFF6"/>
<path d="M706.55 129.653C705.529 130.36 704.546 131.119 703.604 131.927L699.134 126.579C700.116 125.674 701.227 124.925 702.286 123.995L706.55 129.653Z" fill="#4AFFF6"/>
<path d="M721.666 120.299L719.986 121.1L716.782 114.899L718.591 114.02L721.666 120.299Z" fill="#4AFFF6"/>
<path d="M709.754 127.25L708.255 128.361L704.147 122.728L705.749 121.54L709.754 127.25Z" fill="#4AFFF6"/>
<path d="M729.004 117.095L728.126 117.431L725.594 110.92L726.524 110.584L729.004 117.095Z" fill="#4AFFF6"/>
<path d="M702.467 132.961L701.77 133.581L697.144 128.361L697.894 127.689L702.467 132.961Z" fill="#4AFFF6"/>
<path d="M748.1 112.237L744.43 112.78L742.596 113.064L740.787 113.529L739.263 106.708L741.201 106.217L743.19 105.933L747.144 105.312L748.1 112.237Z" fill="#4AFFF6"/>
<path d="M757.919 111.411L754.198 111.592L753.733 104.641L757.738 104.434L757.919 111.411Z" fill="#4AFFF6"/>
<path d="M734.767 115.054C733.575 115.388 732.402 115.785 731.252 116.243L728.953 109.654C730.219 109.24 731.537 108.672 732.751 108.362L734.767 115.054Z" fill="#4AFFF6"/>
<path d="M752.311 111.695C751.687 111.691 751.063 111.752 750.451 111.876L749.676 104.925C750.333 104.813 750.999 104.753 751.665 104.744L752.311 111.695Z" fill="#4AFFF6"/>
<path d="M738.72 114.046L736.911 114.511L735.077 107.793L737.015 107.302L738.72 114.046Z" fill="#4AFFF6"/>
<path d="M760.322 111.281L759.392 111.333L759.34 104.356L760.322 104.305V111.281Z" fill="#4AFFF6"/>
<path d="M729.883 116.785L729.004 117.095L726.524 110.584L727.48 110.222L729.883 116.785Z" fill="#4AFFF6"/>
<path d="M776.652 119.214L769.676 118.155L771.898 98.6978L780.528 100.016L776.652 119.214Z" fill="#4AFFF6"/>
<path d="M785.696 121.617C784.59 121.224 783.459 120.904 782.311 120.661L787.479 101.798C788.904 102.116 790.31 102.513 791.691 102.987L785.696 121.617Z" fill="#4AFFF6"/>
<path d="M763.862 117.767L760.322 117.586V98L764.689 98.2067L763.862 117.767Z" fill="#4AFFF6"/>
<path d="M800.657 128.232C798.693 126.966 796.471 126.139 794.378 125.054L802.518 107.25C805.102 108.568 807.841 109.628 810.269 111.204L800.657 128.232Z" fill="#4AFFF6"/>
<path d="M808.512 133.323C807.556 132.651 806.678 131.85 805.644 131.256L816.497 114.951C817.737 115.7 818.848 116.656 820.037 117.535L808.512 133.323Z" fill="#4AFFF6"/>
<path d="M789.004 122.858L785.696 121.617L791.742 102.987L795.851 104.486L789.004 122.858Z" fill="#4AFFF6"/>
<path d="M820.734 144.253L818.357 141.617L815.747 139.266L829.003 124.821L832.207 127.793L835.153 130.997L820.734 144.253Z" fill="#4AFFF6"/>
<path d="M826.652 151.488L824.559 148.645L839.881 136.475L842.491 139.963L826.652 151.488Z" fill="#4AFFF6"/>
<path d="M811.329 135.442L808.512 133.323L820.037 117.483L823.525 120.119L811.329 135.442Z" fill="#4AFFF6"/>
<path d="M834.946 165.622C833.861 163.529 833.034 161.307 831.768 159.317L848.796 149.679C850.346 152.263 851.38 154.847 852.75 157.431L834.946 165.622Z" fill="#4AFFF6"/>
<path d="M838.357 174.304L837.142 170.996L855.488 164.149L857.013 168.257L838.357 174.304Z" fill="#4AFFF6"/>
<path d="M828.745 154.33C828.15 153.322 827.349 152.444 826.677 151.488L842.491 139.963C843.344 141.152 844.3 142.263 845.075 143.503L828.745 154.33Z" fill="#4AFFF6"/>
<path d="M841.845 190.324L840.786 183.348L859.985 179.472L861.302 188.102L841.845 190.324Z" fill="#4AFFF6"/>
<path d="M842.414 199.678L842.207 196.138L861.793 195.312L862 199.678H842.414Z" fill="#4AFFF6"/>
<path d="M839.339 177.689C839.096 176.54 838.776 175.41 838.383 174.304L856.987 168.257C857.482 169.634 857.888 171.041 858.202 172.469L839.339 177.689Z" fill="#4AFFF6"/>
<path d="M739.088 181.344H745.2L745.28 180.592H740.096V177.408H751.904V180.592H746.8L746.72 181.344H752.912V182.48H746.528L746.368 183.2H750.944V190.176H753.2V191.36H738.8V190.176H741.056V183.2H744.88L745.024 182.48H739.088V181.344ZM742.56 190.176H749.44V189.328H742.56V190.176ZM742.56 188.432H749.44V187.632H742.56V188.432ZM742.56 186.72H749.44V185.92H742.56V186.72ZM742.56 185.008H749.44V184.224H742.56V185.008ZM750.464 179.552V178.512H748.448V179.552H750.464ZM747.088 179.552V178.512H744.912V179.552H747.088ZM743.552 179.552V178.512H741.536V179.552H743.552ZM756.288 183.216C755.808 183.845 755.365 184.389 754.96 184.848L754.464 183.216C755.936 181.36 757.035 179.195 757.76 176.72L759.184 177.392C758.8 178.619 758.331 179.765 757.776 180.832V191.68H756.288V183.216ZM758.896 178.816H763.584C763.381 178.272 763.141 177.744 762.864 177.232L764.32 176.832C764.661 177.557 764.917 178.219 765.088 178.816H769.408V180.24H758.896V178.816ZM760.352 181.216H768.048V182.576H760.352V181.216ZM760.352 183.472H768.048V184.848H760.352V183.472ZM768.384 185.856V191.648H766.912V190.816H761.472V191.648H760V185.856H768.384ZM761.472 189.392H766.912V187.264H761.472V189.392ZM774.128 185.664H783.6V186.784C782.8 187.765 781.819 188.608 780.656 189.312C782.053 189.835 783.616 190.208 785.344 190.432L784.688 191.744C782.597 191.403 780.773 190.853 779.216 190.096C777.637 190.832 775.776 191.381 773.632 191.744L772.976 190.416C774.779 190.16 776.357 189.771 777.712 189.248C776.699 188.576 775.861 187.813 775.2 186.96H774.128V185.664ZM776.832 186.96C777.451 187.579 778.208 188.133 779.104 188.624C780.021 188.155 780.837 187.6 781.552 186.96H776.832ZM773.424 182.32V183.216C773.36 186.715 772.789 189.509 771.712 191.6L770.56 190.576C771.435 188.795 771.888 186.341 771.92 183.216V178H777.984C777.803 177.637 777.616 177.312 777.424 177.024L779.04 176.768C779.232 177.163 779.403 177.573 779.552 178H784.928V179.44H773.424V180.912H775.824V179.84H777.296V180.912H781.056V179.824H782.528V180.912H784.928V182.32H782.528V184.784H775.824V182.32H773.424ZM777.296 182.32V183.52H781.056V182.32H777.296Z" fill="#4AFFF6"/>
<path d="M734.4 204.896C735.768 204.896 736.854 205.256 737.658 205.976C738.378 206.624 738.738 207.428 738.738 208.388C738.738 209.048 738.594 209.606 738.306 210.062C737.982 210.542 737.496 210.908 736.848 211.16V211.214C737.472 211.358 738 211.718 738.432 212.294C738.936 212.906 739.188 213.614 739.188 214.418C739.188 215.546 738.774 216.47 737.946 217.19C737.094 217.898 735.912 218.252 734.4 218.252C732.876 218.252 731.694 217.898 730.854 217.19C730.026 216.47 729.612 215.546 729.612 214.418C729.612 213.614 729.864 212.906 730.368 212.294C730.8 211.718 731.328 211.358 731.952 211.214V211.16C731.304 210.908 730.818 210.542 730.494 210.062C730.206 209.606 730.062 209.048 730.062 208.388C730.062 207.428 730.422 206.624 731.142 205.976C731.934 205.256 733.02 204.896 734.4 204.896ZM734.4 206.462C733.596 206.462 732.966 206.672 732.51 207.092C732.102 207.452 731.898 207.908 731.898 208.46C731.898 209.084 732.066 209.57 732.402 209.918C732.822 210.35 733.488 210.566 734.4 210.566C735.3 210.566 735.966 210.35 736.398 209.918C736.734 209.546 736.902 209.06 736.902 208.46C736.902 207.92 736.698 207.464 736.29 207.092C735.834 206.672 735.204 206.462 734.4 206.462ZM734.4 212.024C733.44 212.024 732.732 212.252 732.276 212.708C731.796 213.14 731.556 213.71 731.556 214.418C731.556 215.09 731.802 215.63 732.294 216.038C732.786 216.458 733.488 216.668 734.4 216.668C735.3 216.668 736.014 216.458 736.542 216.038C737.01 215.618 737.244 215.078 737.244 214.418C737.244 213.698 737.01 213.134 736.542 212.726C736.038 212.258 735.324 212.024 734.4 212.024ZM745.049 204.896C746.621 204.896 747.815 205.466 748.631 206.606C749.435 207.722 749.837 209.258 749.837 211.214C749.837 213.29 749.411 214.982 748.559 216.29C747.671 217.598 746.495 218.252 745.031 218.252C742.535 218.252 741.125 217.088 740.801 214.76H742.709C742.961 216.008 743.741 216.632 745.049 216.632C745.913 216.632 746.621 216.194 747.173 215.318C747.689 214.466 747.947 213.428 747.947 212.204L747.929 211.97H747.857C747.509 212.51 747.053 212.93 746.489 213.23C745.937 213.494 745.343 213.626 744.707 213.626C743.435 213.626 742.421 213.218 741.665 212.402C740.933 211.622 740.567 210.596 740.567 209.324C740.567 208.028 740.993 206.972 741.845 206.156C742.697 205.316 743.765 204.896 745.049 204.896ZM745.121 206.516C744.305 206.516 743.669 206.78 743.213 207.308C742.733 207.824 742.493 208.496 742.493 209.324C742.493 210.152 742.733 210.806 743.213 211.286C743.669 211.79 744.299 212.042 745.103 212.042C745.907 212.042 746.543 211.79 747.011 211.286C747.479 210.782 747.713 210.11 747.713 209.27C747.713 208.442 747.473 207.776 746.993 207.272C746.513 206.768 745.889 206.516 745.121 206.516ZM753.034 215.426C753.43 215.426 753.748 215.546 753.988 215.786C754.24 216.014 754.366 216.32 754.366 216.704C754.366 217.064 754.234 217.376 753.97 217.64C753.706 217.88 753.394 218 753.034 218C752.662 218 752.35 217.874 752.098 217.622C751.846 217.37 751.72 217.064 751.72 216.704C751.72 216.32 751.846 216.014 752.098 215.786C752.338 215.546 752.65 215.426 753.034 215.426ZM761.07 204.896C763.566 204.896 764.976 206.06 765.3 208.388H763.392C763.128 207.14 762.348 206.516 761.052 206.516C760.152 206.516 759.444 206.954 758.928 207.83C758.412 208.646 758.154 209.684 758.154 210.944C758.154 211.028 758.16 211.106 758.172 211.178H758.244C758.604 210.602 759.06 210.182 759.612 209.918C760.104 209.654 760.698 209.522 761.394 209.522C762.654 209.522 763.662 209.918 764.418 210.71C765.162 211.526 765.534 212.564 765.534 213.824C765.534 215.108 765.108 216.164 764.256 216.992C763.38 217.832 762.312 218.252 761.052 218.252C759.48 218.252 758.28 217.676 757.452 216.524C756.66 215.42 756.264 213.89 756.264 211.934C756.264 209.822 756.69 208.13 757.542 206.858C758.406 205.55 759.582 204.896 761.07 204.896ZM760.998 211.106C760.194 211.106 759.558 211.358 759.09 211.862C758.622 212.366 758.388 213.038 758.388 213.878C758.388 214.718 758.628 215.384 759.108 215.876C759.576 216.38 760.2 216.632 760.98 216.632C761.772 216.632 762.402 216.368 762.87 215.84C763.362 215.288 763.608 214.616 763.608 213.824C763.608 212.984 763.374 212.33 762.906 211.862C762.438 211.358 761.802 211.106 760.998 211.106ZM772.979 205.148H774.779V213.644H776.723V215.21H774.779V218H772.907V215.21H766.643V213.356L772.979 205.148ZM772.853 207.632L768.245 213.644H772.907V207.632H772.853ZM790.63 210.962C791.626 210.962 792.388 211.316 792.916 212.024C793.396 212.648 793.636 213.47 793.636 214.49C793.636 215.486 793.396 216.308 792.916 216.956C792.364 217.652 791.602 218 790.63 218C789.634 218 788.86 217.652 788.308 216.956C787.828 216.32 787.588 215.498 787.588 214.49C787.588 213.446 787.828 212.624 788.308 212.024C788.836 211.316 789.61 210.962 790.63 210.962ZM788.848 204.896H790.324L783.106 218.252H781.648L788.848 204.896ZM781.378 205.148C782.374 205.148 783.136 205.502 783.664 206.21C784.144 206.834 784.384 207.656 784.384 208.676C784.384 209.672 784.144 210.494 783.664 211.142C783.112 211.838 782.35 212.186 781.378 212.186C780.382 212.186 779.608 211.838 779.056 211.142C778.576 210.506 778.336 209.684 778.336 208.676C778.336 207.632 778.576 206.81 779.056 206.21C779.584 205.502 780.358 205.148 781.378 205.148ZM790.63 212.204C790.162 212.204 789.82 212.438 789.604 212.906C789.448 213.266 789.37 213.794 789.37 214.49C789.37 215.15 789.448 215.672 789.604 216.056C789.82 216.524 790.162 216.758 790.63 216.758C791.074 216.758 791.404 216.512 791.62 216.02C791.776 215.612 791.854 215.102 791.854 214.49C791.854 213.842 791.77 213.32 791.602 212.924C791.41 212.444 791.086 212.204 790.63 212.204ZM781.378 206.39C780.91 206.39 780.568 206.624 780.352 207.092C780.196 207.452 780.118 207.98 780.118 208.676C780.118 209.336 780.196 209.858 780.352 210.242C780.568 210.71 780.91 210.944 781.378 210.944C781.822 210.944 782.152 210.698 782.368 210.206C782.524 209.798 782.602 209.288 782.602 208.676C782.602 208.028 782.518 207.506 782.35 207.11C782.158 206.63 781.834 206.39 781.378 206.39Z" fill="#4AFFF6"/>
<g style="mix-blend-mode:overlay">
<path d="M637 103.623H39.7655V142.914H637V103.623Z" fill="#4AFFF6"/>
</g>
<g style="mix-blend-mode:overlay">
<path d="M39.7655 142.914H307.438L348.155 103.623H39.7655V142.914Z" fill="#4AFFF6"/>
</g>
<g style="mix-blend-mode:overlay">
<path d="M321.567 142.914L362.202 103.623H391.885L352.349 142.914H321.567Z" fill="#4AFFF6"/>
</g>
<g style="mix-blend-mode:overlay">
<path d="M361.917 142.914L402.552 103.623H415.948L376.453 142.914H361.917Z" fill="#4AFFF6"/>
</g>
<path d="M39.7655 142.914H266.721L307.438 103.623H39.7655V142.914Z" fill="#4AFFF6"/>
<g style="mix-blend-mode:overlay">
<path d="M637 165.539H161.916V204.83H637V165.539Z" fill="#4AFFF6"/>
</g>
<g style="mix-blend-mode:overlay">
<path d="M39.7655 204.791H429.588L470.305 165.539H39.7655V204.791Z" fill="#4AFFF6"/>
</g>
<g style="mix-blend-mode:overlay">
<path d="M443.717 204.791L484.353 165.539H514.035L474.499 204.791H443.717Z" fill="#4AFFF6"/>
</g>
<g style="mix-blend-mode:overlay">
<path d="M484.068 204.791L524.703 165.539H538.099L498.603 204.791H484.068Z" fill="#4AFFF6"/>
</g>
<path d="M39.7655 204.791H388.872L429.588 165.539H39.7655V204.791Z" fill="#4AFFF6"/>
<path d="M19 78V225.235" stroke="#4AFFF6" stroke-width="0.75" stroke-miterlimit="10"/>
<g style="mix-blend-mode:overlay">
<path d="M637.235 233.597H162.151V272.888H637.235V233.597Z" fill="#4AFFF6"/>
</g>
<g style="mix-blend-mode:overlay">
<path d="M129.677 272.849H519.5L560.217 233.597H129.677V272.849Z" fill="#4AFFF6"/>
</g>
<g style="mix-blend-mode:overlay">
<path d="M534 272.849L574.635 233.597H604.318L564.782 272.849H534Z" fill="#4AFFF6"/>
</g>
<g style="mix-blend-mode:overlay">
<path d="M576 272.849L616.635 233.597H630.031L590.536 272.849H576Z" fill="#4AFFF6"/>
</g>
<path d="M40 272.849H481.283L522 233.597H40V272.849Z" fill="#4AFFF6"/>
<path d="M19 204.492V303" stroke="#4AFFF6" stroke-width="0.75" stroke-miterlimit="10"/>
<path d="M55.912 248.888H57.784V245.896H59.272V248.888H60.792V250.344H59.272V251.032C59.912 251.672 60.552 252.392 61.192 253.192L60.328 254.488C59.9333 253.72 59.5813 253.08 59.272 252.568V260.568H57.784V253.448C57.3467 254.739 56.8027 255.949 56.152 257.08L55.496 255.4C56.52 253.939 57.272 252.253 57.752 250.344H55.912V248.888ZM63.048 250.904C62.4827 251.469 61.912 251.955 61.336 252.36L60.52 251.08C62.3653 249.768 63.784 248.045 64.776 245.912H66.184C67.016 247.864 68.4613 249.581 70.52 251.064L69.688 252.344C69.0693 251.896 68.5093 251.432 68.008 250.952V251.8H63.048V250.904ZM67.464 250.392C66.664 249.507 66.0027 248.515 65.48 247.416C64.904 248.547 64.248 249.539 63.512 250.392H67.464ZM60.888 258.728H66.376C66.9733 257.096 67.5067 255.053 67.976 252.6L69.416 252.968C69.0107 255.048 68.4933 256.968 67.864 258.728H70.152V260.2H60.888V258.728ZM62.936 253.032C63.3733 254.461 63.7467 256.013 64.056 257.688L62.728 258.04C62.4293 256.451 62.0613 254.931 61.624 253.48L62.936 253.032ZM65.336 252.472C65.72 253.72 66.0773 255.208 66.408 256.936L65.032 257.304C64.7867 255.811 64.456 254.339 64.04 252.888L65.336 252.472ZM72.856 246.136C73.7307 246.851 74.4773 247.576 75.096 248.312L74.104 249.304C73.5387 248.6 72.7813 247.869 71.832 247.112L72.856 246.136ZM72.6 250.056C73.4853 250.856 74.2107 251.635 74.776 252.392L73.8 253.384C73.2453 252.637 72.504 251.853 71.576 251.032L72.6 250.056ZM74.984 254.936C74.4187 256.845 73.768 258.685 73.032 260.456L71.656 259.864C72.4667 258.04 73.1493 256.227 73.704 254.424L74.984 254.936ZM81.144 246.632V256.52H79.8V247.928H76.808V256.616H75.464V246.632H81.144ZM79.432 257.176C80.3493 257.997 81.128 258.824 81.768 259.656L80.76 260.648C80.2373 259.859 79.4907 258.995 78.52 258.056L79.432 257.176ZM77.688 248.856H78.936V253.88C78.8827 255.736 78.5893 257.208 78.056 258.296C77.5333 259.299 76.6747 260.093 75.48 260.68L74.696 259.416C75.8267 258.872 76.6 258.184 77.016 257.352C77.4213 256.456 77.6453 255.299 77.688 253.88V248.856ZM82.664 260.52L82.344 259.112C82.888 259.176 83.416 259.208 83.928 259.208C84.2587 259.208 84.424 259.011 84.424 258.616V245.976H85.848V258.968C85.848 260.003 85.3733 260.52 84.424 260.52H82.664ZM82.088 247.288H83.416V257.176H82.088V247.288ZM93.592 258.664C91.9173 259.251 90.0667 259.725 88.04 260.088L87.848 258.616C90.0453 258.264 91.96 257.8 93.592 257.224V258.664ZM91.816 246.344C91.0373 248.307 90.2587 249.88 89.48 251.064C90.088 251 90.712 250.92 91.352 250.824L92.248 249.128L93.576 249.608C92.1893 252.157 91.048 253.987 90.152 255.096C91.24 254.872 92.3227 254.568 93.4 254.184V255.544C91.6293 256.141 89.9387 256.547 88.328 256.76L87.928 255.4C88.1947 255.293 88.424 255.149 88.616 254.968C89.16 254.392 89.8107 253.469 90.568 252.2L88.056 252.552L87.688 251.16C87.9013 251.064 88.1093 250.877 88.312 250.6C89.1333 249.117 89.8267 247.517 90.392 245.8L91.816 246.344ZM93.352 247.736H97.048V245.928H98.568V247.736H102.248V249.208H98.568V251.224H101.784V252.696H93.88V251.224H97.048V249.208H93.352V247.736ZM101.448 253.944V260.6H99.976V259.96H95.752V260.6H94.264V253.944H101.448ZM95.752 258.52H99.976V255.384H95.752V258.52ZM105.448 246.424H116.504V252.888H111.768V254.072H118.088V255.48H112.984C114.104 256.771 115.928 257.939 118.456 258.984L117.4 260.312C114.744 258.872 112.867 257.283 111.768 255.544V260.616H110.232V255.528C109.037 257.459 107.117 259.048 104.472 260.296L103.592 258.888C106.013 258.003 107.816 256.867 109 255.48H103.912V254.072H110.232V252.888H105.448V246.424ZM114.984 251.576V250.344H111.768V251.576H114.984ZM110.232 251.576V250.344H106.968V251.576H110.232ZM106.968 249.032H110.232V247.768H106.968V249.032ZM111.768 247.768V249.032H114.984V247.768H111.768ZM121.176 250.856C121.528 250.856 121.811 250.963 122.024 251.176C122.248 251.379 122.36 251.651 122.36 251.992C122.36 252.312 122.243 252.589 122.008 252.824C121.773 253.037 121.496 253.144 121.176 253.144C120.845 253.144 120.568 253.032 120.344 252.808C120.12 252.584 120.008 252.312 120.008 251.992C120.008 251.651 120.12 251.379 120.344 251.176C120.557 250.963 120.835 250.856 121.176 250.856ZM121.176 256.712C121.528 256.712 121.811 256.819 122.024 257.032C122.248 257.235 122.36 257.507 122.36 257.848C122.36 258.168 122.243 258.445 122.008 258.68C121.773 258.893 121.496 259 121.176 259C120.845 259 120.568 258.888 120.344 258.664C120.12 258.44 120.008 258.168 120.008 257.848C120.008 257.507 120.12 257.235 120.344 257.032C120.557 256.819 120.835 256.712 121.176 256.712ZM134.704 247.512H138.8C138.586 246.968 138.33 246.445 138.032 245.944L139.6 245.688C139.866 246.285 140.101 246.893 140.304 247.512H144.096V248.904H139.472C138.597 250.205 137.818 251.181 137.135 251.832C137.84 251.8 138.816 251.741 140.064 251.656C140.48 251.112 140.848 250.536 141.168 249.928L142.448 250.584C140.89 253.496 138.624 255.491 135.648 256.568L134.848 255.32C136.448 254.787 137.797 253.997 138.896 252.952C138.032 252.995 136.826 253.048 135.28 253.112L134.96 251.816C135.077 251.784 135.173 251.741 135.248 251.688C135.909 251.315 136.757 250.387 137.792 248.904H134.704V247.512ZM140.352 257.592C138.816 258.925 137.029 259.939 134.992 260.632L134.144 259.32C137.962 258.104 140.821 255.768 142.72 252.312L144 253C143.242 254.387 142.346 255.613 141.312 256.68C142.432 257.619 143.392 258.563 144.192 259.512L143.088 260.632C142.426 259.683 141.514 258.669 140.352 257.592ZM131.472 246.008C132.474 246.776 133.344 247.56 134.08 248.36L133.04 249.416C132.389 248.648 131.509 247.859 130.4 247.048L131.472 246.008ZM129.296 250.648H132.992V257.448C133.418 257.075 133.925 256.605 134.512 256.04L134.928 257.64C133.925 258.6 132.853 259.448 131.712 260.184L131.136 258.808C131.402 258.573 131.536 258.301 131.536 257.992V252.104H129.296V250.648ZM157.856 253.352V260.648H156.336V260.008H149.104V260.648H147.584V253.352H157.856ZM149.104 258.696H156.336V257.352H149.104V258.696ZM149.104 256.056H156.336V254.68H149.104V256.056ZM146.336 247.32H151.952C151.696 246.765 151.461 246.317 151.248 245.976L152.88 245.72C153.093 246.168 153.306 246.701 153.52 247.32H159.056V248.728H156.592C156.389 249.475 156.106 250.211 155.744 250.936H159.792V252.344H145.584V250.936H149.552C149.328 250.2 149.077 249.464 148.799 248.728H146.336V247.32ZM150.384 248.728C150.629 249.475 150.848 250.211 151.04 250.936H154.256C154.629 250.189 154.906 249.453 155.088 248.728H150.384ZM164.512 245.912H166V247.656H167.968V249.08H166V250.552H168.176V252.04H161.344V250.552H162.144V247.224H163.6V250.552H164.512V245.912ZM168.48 253.496C167.776 257.091 165.712 259.459 162.288 260.6L161.424 259.208C163.13 258.707 164.485 257.88 165.488 256.728H164.448V252.504H165.904V256.184C166.49 255.32 166.906 254.323 167.152 253.192L168.48 253.496ZM163.872 253.768C163.498 255.283 163.018 256.445 162.432 257.256L161.296 256.264C161.861 255.496 162.277 254.488 162.544 253.24L163.872 253.768ZM168.352 246.424H175.968V247.848H172.88C172.848 248.349 172.8 248.824 172.736 249.272H175.52V257.032H174.048V250.664H170.256V257.032H168.8V249.272H171.152C171.194 248.963 171.248 248.488 171.312 247.848H168.352V246.424ZM173.472 256.968C174.517 257.832 175.413 258.707 176.16 259.592L175.04 260.712C174.453 259.88 173.589 258.957 172.448 257.944L173.472 256.968ZM171.376 251.464H172.848V254.28C172.784 256.019 172.416 257.411 171.744 258.456C171.061 259.427 169.978 260.173 168.496 260.696L167.664 259.368C169.072 258.856 170.032 258.227 170.544 257.48C171.034 256.659 171.312 255.592 171.376 254.28V251.464ZM177.632 248.456H184.08C183.674 247.699 183.162 246.973 182.544 246.28L184.064 245.72C184.65 246.509 185.189 247.421 185.68 248.456H191.744V249.96H189.296C188.528 252.381 187.392 254.419 185.888 256.072C187.552 257.437 189.621 258.568 192.096 259.464L191.248 260.744C188.666 259.784 186.528 258.584 184.832 257.144C183.029 258.744 180.805 259.928 178.16 260.696L177.344 259.352C179.925 258.68 182.064 257.619 183.76 256.168C182 254.408 180.773 252.339 180.08 249.96H177.632V248.456ZM181.536 249.96C182.218 251.944 183.312 253.667 184.816 255.128C186.117 253.699 187.088 251.976 187.728 249.96H181.536ZM198.128 246.408C197.733 247.667 197.21 248.861 196.56 249.992V260.648H195.072V252.2C194.677 252.712 194.202 253.261 193.648 253.848L193.152 252.232C194.752 250.376 195.936 248.216 196.704 245.752L198.128 246.408ZM200.88 247.096C200.741 247.885 200.592 248.568 200.432 249.144H202.352V245.944H203.872V249.144H207.408V250.632H203.872V254.072H208V255.544H203.872V260.584H202.352V255.544H197.808V254.072H202.352V250.632H199.936C199.53 251.645 199.045 252.563 198.48 253.384L197.504 252.12C198.442 250.68 199.072 248.941 199.392 246.904L200.88 247.096ZM209.936 247.336H214.16C214.33 246.856 214.496 246.339 214.656 245.784L216.192 245.96C216.085 246.344 215.946 246.803 215.776 247.336H223.76V248.824H215.184C214.576 250.211 213.85 251.464 213.008 252.584V260.664H211.52V254.36C211.136 254.776 210.704 255.197 210.224 255.624L209.28 254.408C211.114 252.776 212.533 250.915 213.536 248.824H209.936V247.336ZM214.08 254.856H218.592V253.56C219.445 253.08 220.261 252.52 221.04 251.88H215.296V250.488H222.944V251.88C222.058 252.712 221.109 253.475 220.096 254.168V254.856H223.968V256.328H220.096V258.936C220.096 260.045 219.552 260.6 218.464 260.6H216.48L216.08 259.16C216.624 259.192 217.216 259.208 217.856 259.208C218.346 259.208 218.592 258.957 218.592 258.456V256.328H214.08V254.856ZM230.384 253.208H233.888V250.392H235.44V253.208H239.136V254.68H235.44V258.616H239.84V260.104H229.792V258.616H233.888V254.68H230.384V253.208ZM227.648 254.536C227.21 254.973 226.709 255.432 226.144 255.912L225.184 254.664C227.029 253.139 228.501 251.389 229.6 249.416H225.76V247.928H230.32C230.608 247.299 230.874 246.568 231.12 245.736L232.688 245.912C232.464 246.659 232.234 247.331 232 247.928H239.84V249.416H231.328C230.698 250.675 229.973 251.816 229.152 252.84V260.696H227.648V254.536ZM242.944 246.024C244.128 246.835 245.114 247.635 245.904 248.424L244.816 249.528C244.112 248.76 243.12 247.944 241.84 247.08L242.944 246.024ZM242.56 249.768C243.626 250.547 244.56 251.357 245.36 252.2L244.272 253.288C243.6 252.541 242.666 251.72 241.472 250.824L242.56 249.768ZM245.808 254.856C245.029 256.872 244.181 258.755 243.264 260.504L241.728 259.832C242.773 257.997 243.674 256.152 244.432 254.296L245.808 254.856ZM246.32 254.856V253.416H250.048V251.736H251.552V253.416H255.44V254.856H252.816C253.52 256.157 254.624 257.32 256.128 258.344L255.136 259.576C253.514 258.179 252.346 256.605 251.632 254.856H251.552V260.584H250.048V254.856H249.952C249.141 256.829 247.866 258.451 246.128 259.72L245.312 258.408C246.88 257.459 248.032 256.275 248.767 254.856H246.32ZM255.328 246.424V249.56H253.872V247.816H247.824V249.624H246.368V246.424H255.328ZM250.288 249.176C249.573 250.627 248.645 251.736 247.504 252.504L246.4 251.56C247.562 250.824 248.432 249.859 249.008 248.664L250.288 249.176ZM252.304 248.552C253.445 249.661 254.346 250.675 255.008 251.592L253.792 252.44C253.13 251.448 252.266 250.387 251.2 249.256L252.304 248.552ZM260.816 254.664H270.288V255.784C269.488 256.765 268.506 257.608 267.344 258.312C268.741 258.835 270.304 259.208 272.032 259.432L271.376 260.744C269.285 260.403 267.461 259.853 265.904 259.096C264.325 259.832 262.464 260.381 260.32 260.744L259.664 259.416C261.466 259.16 263.045 258.771 264.4 258.248C263.386 257.576 262.549 256.813 261.888 255.96H260.816V254.664ZM263.52 255.96C264.138 256.579 264.896 257.133 265.792 257.624C266.709 257.155 267.525 256.6 268.24 255.96H263.52ZM260.112 251.32V252.216C260.048 255.715 259.477 258.509 258.4 260.6L257.248 259.576C258.122 257.795 258.576 255.341 258.608 252.216V247H264.672C264.49 246.637 264.304 246.312 264.112 246.024L265.727 245.768C265.92 246.163 266.09 246.573 266.24 247H271.616V248.44H260.112V249.912H262.512V248.84H263.984V249.912H267.744V248.824H269.216V249.912H271.616V251.32H269.216V253.784H262.512V251.32H260.112ZM263.984 251.32V252.52H267.744V251.32H263.984ZM275.296 251.896C274.816 252.568 274.293 253.219 273.728 253.848L273.232 252.264C274.746 250.419 275.861 248.28 276.576 245.848L277.952 246.488C277.653 247.448 277.274 248.408 276.816 249.368V260.68H275.296V251.896ZM279.248 246.184C279.92 247.016 280.48 247.789 280.928 248.504L279.776 249.304C279.338 248.579 278.784 247.805 278.112 246.984L279.248 246.184ZM283.12 253.08C284.037 254.253 284.736 255.272 285.216 256.136L284.032 256.952C283.605 256.152 283.024 255.245 282.288 254.232C282.106 254.957 281.909 255.603 281.696 256.168C280.949 258.035 279.728 259.48 278.032 260.504L277.232 259.256C278.853 258.179 279.952 256.787 280.528 255.08C280.869 254.024 281.12 252.739 281.28 251.224H278.112V249.752H281.408C281.429 249.379 281.45 248.819 281.472 248.072V245.88H282.944V248.072C282.922 248.819 282.901 249.379 282.88 249.752H287.312C287.312 254.488 287.232 257.411 287.072 258.52C286.88 259.8 286 260.44 284.432 260.44L283.152 260.376L282.816 259.032C283.541 259.075 284.005 259.096 284.208 259.096C285.04 259.096 285.52 258.68 285.648 257.848C285.754 257.155 285.813 254.947 285.824 251.224H282.768C282.672 252.056 282.56 252.819 282.432 253.512L283.12 253.08ZM290.864 245.944C291.941 246.84 292.842 247.715 293.568 248.568L292.496 249.624C291.834 248.771 290.944 247.875 289.824 246.936L290.864 245.944ZM300.016 260.376C299.482 260.376 298.533 260.365 297.168 260.344C296.154 260.333 295.306 260.243 294.624 260.072C293.994 259.88 293.434 259.507 292.944 258.952C292.72 258.685 292.517 258.552 292.336 258.552C291.984 258.552 291.402 259.277 290.592 260.728L289.472 259.688C290.272 258.387 290.997 257.571 291.648 257.24V252.712H289.504V251.304H293.072V257.368L293.296 257.592C293.68 258.019 294.064 258.339 294.448 258.552C294.949 258.787 295.664 258.92 296.592 258.952C297.786 258.973 298.858 258.984 299.808 258.984C300.309 258.984 301.114 258.973 302.224 258.952C302.917 258.941 303.541 258.915 304.096 258.872L303.728 260.376H300.016ZM296.24 249.096C296.005 249.597 295.722 250.099 295.392 250.6L294.144 249.816C294.912 248.728 295.456 247.544 295.776 246.264L297.168 246.568C297.04 247.016 296.922 247.389 296.816 247.688H298.416V245.896H299.872V247.688H303.024V249.096H299.872V250.792H303.856V252.184H293.968V250.792H298.416V249.096H296.24ZM295.248 253.192H302.704V257.928H295.248V253.192ZM301.248 256.536V254.6H296.704V256.536H301.248ZM312.064 255.384V258.728C312.949 258.536 313.85 258.285 314.768 257.976L315.088 259.352C313.882 259.757 312.304 260.147 310.352 260.52L310 259.32C310.394 259.224 310.592 259.091 310.592 258.92V249.432H318.608V255.384H315.024C315.301 256.045 315.722 256.632 316.288 257.144C317.002 256.792 317.685 256.264 318.336 255.56L319.312 256.536C318.736 257.144 318.106 257.635 317.424 258.008C318.213 258.499 319.146 258.936 320.224 259.32L319.392 260.664C316.277 259.352 314.352 257.592 313.616 255.384H312.064ZM307.872 252.408V246.968H313.008C312.869 246.616 312.709 246.28 312.528 245.96L314.08 245.704C314.314 246.259 314.48 246.68 314.576 246.968H319.856V248.424H309.376V252.408C309.301 255.832 308.442 258.579 306.799 260.648L305.632 259.624C306.72 258.291 307.408 256.579 307.696 254.488C307.152 254.947 306.512 255.421 305.776 255.912L305.328 254.408C306.202 253.939 307.045 253.384 307.856 252.744L307.872 252.408ZM306.48 248.312C306.992 249.251 307.445 250.285 307.84 251.416L306.56 251.944C306.154 250.792 305.706 249.757 305.215 248.84L306.48 248.312ZM312.064 253.096V254.008H317.136V253.096H312.064ZM317.136 251.784V250.808H312.064V251.784H317.136ZM326.064 247.544H329.968C329.808 247.011 329.632 246.531 329.44 246.104L330.976 245.848C331.178 246.435 331.349 247 331.488 247.544H335.984V249.016H332.976V256.536C332.976 257.571 332.48 258.088 331.488 258.088H329.984L329.664 256.648C330.112 256.712 330.549 256.744 330.976 256.744C331.402 256.744 331.616 256.557 331.616 256.184V249.016H330.256V251C330.213 254.211 329.322 256.568 327.584 258.072L326.464 257.096C327.978 255.816 328.752 253.784 328.784 251V249.016H326.064V247.544ZM334.832 250.376C335.28 251.848 335.68 253.528 336.032 255.416L334.72 255.72C334.442 254.109 334.069 252.467 333.6 250.792L334.832 250.376ZM327.968 250.712C327.712 252.899 327.226 254.483 326.512 255.464L325.36 254.632C326.053 253.629 326.496 252.259 326.688 250.52L327.968 250.712ZM322.784 246.04C323.808 246.872 324.688 247.715 325.424 248.568L324.368 249.624C323.77 248.856 322.89 247.997 321.728 247.048L322.784 246.04ZM332.032 260.376C331.488 260.376 330.522 260.365 329.135 260.344C328.101 260.333 327.237 260.243 326.544 260.072C325.904 259.891 325.338 259.517 324.848 258.952C324.624 258.685 324.416 258.552 324.224 258.552C323.893 258.552 323.344 259.272 322.576 260.712L321.456 259.672C322.224 258.392 322.917 257.587 323.536 257.256V252.712H321.472V251.304H324.96V257.352C325.045 257.416 325.125 257.496 325.2 257.592C325.594 258.029 325.989 258.349 326.384 258.552C326.885 258.787 327.605 258.92 328.544 258.952C329.76 258.973 330.853 258.984 331.824 258.984C332.325 258.984 333.12 258.973 334.208 258.952C334.912 258.941 335.53 258.915 336.064 258.872L335.696 260.376H332.032Z" fill="#AD00FF"/>
<path d="M56.6099 118.456H63.0579C62.6526 117.699 62.1406 116.973 61.5219 116.28L63.0419 115.72C63.6286 116.509 64.1672 117.421 64.6579 118.456H70.7219V119.96H68.2739C67.5059 122.381 66.3699 124.419 64.8659 126.072C66.5299 127.437 68.5992 128.568 71.0739 129.464L70.2259 130.744C67.6446 129.784 65.5059 128.584 63.8099 127.144C62.0072 128.744 59.7832 129.928 57.1379 130.696L56.3219 129.352C58.9032 128.68 61.0419 127.619 62.7379 126.168C60.9779 124.408 59.7512 122.339 59.0579 119.96H56.6099V118.456ZM60.5139 119.96C61.1966 121.944 62.2899 123.667 63.7939 125.128C65.0952 123.699 66.0659 121.976 66.7059 119.96H60.5139ZM77.1059 116.408C76.7112 117.667 76.1886 118.861 75.5379 119.992V130.648H74.0499V122.2C73.6552 122.712 73.1806 123.261 72.6259 123.848L72.1299 122.232C73.7299 120.376 74.9139 118.216 75.6819 115.752L77.1059 116.408ZM79.8579 117.096C79.7192 117.885 79.5699 118.568 79.4099 119.144H81.3299V115.944H82.8499V119.144H86.3859V120.632H82.8499V124.072H86.9779V125.544H82.8499V130.584H81.3299V125.544H76.7859V124.072H81.3299V120.632H78.9139C78.5086 121.645 78.0232 122.563 77.4579 123.384L76.4819 122.12C77.4206 120.68 78.0499 118.941 78.3699 116.904L79.8579 117.096ZM93.5379 129.752V130.6H92.0179V125.112C91.1432 125.379 90.1886 125.635 89.1539 125.88L88.3539 124.408C91.0526 123.885 93.2819 123.219 95.0419 122.408C94.3699 121.864 93.4846 121.277 92.3859 120.648L93.6979 119.832C94.7966 120.504 95.6819 121.128 96.3539 121.704C97.7939 120.829 98.8712 119.811 99.5859 118.648H94.0499C92.9512 119.651 91.5806 120.547 89.9379 121.336L88.9139 120.024C91.6126 118.872 93.4419 117.475 94.4019 115.832L96.0659 116.024C95.8206 116.472 95.5752 116.872 95.3299 117.224H101.33V118.568C100.285 120.605 98.4126 122.296 95.7139 123.64H101.842V130.6H100.306V129.752H93.5379ZM100.306 128.28V125.048H93.5379V128.28H100.306ZM105.842 120.856C106.194 120.856 106.477 120.963 106.69 121.176C106.914 121.379 107.026 121.651 107.026 121.992C107.026 122.312 106.909 122.589 106.674 122.824C106.439 123.037 106.162 123.144 105.842 123.144C105.511 123.144 105.234 123.032 105.01 122.808C104.786 122.584 104.674 122.312 104.674 121.992C104.674 121.651 104.786 121.379 105.01 121.176C105.223 120.963 105.501 120.856 105.842 120.856ZM105.842 126.712C106.194 126.712 106.477 126.819 106.69 127.032C106.914 127.235 107.026 127.507 107.026 127.848C107.026 128.168 106.909 128.445 106.674 128.68C106.439 128.893 106.162 129 105.842 129C105.511 129 105.234 128.888 105.01 128.664C104.786 128.44 104.674 128.168 104.674 127.848C104.674 127.507 104.786 127.235 105.01 127.032C105.223 126.819 105.501 126.712 105.842 126.712ZM116.825 118.056V120.728H118.713V122.136H116.825V126.936C116.825 127.149 116.873 127.315 116.969 127.432C117.076 127.539 117.225 127.592 117.417 127.592H118.505V129H117.145C116.431 129 115.913 128.813 115.593 128.44C115.284 128.099 115.129 127.597 115.129 126.936V122.136H113.593V120.728H115.129V118.76L116.825 118.056ZM122.591 118.056V120.728H124.479V122.136H122.591V126.936C122.591 127.149 122.639 127.315 122.735 127.432C122.842 127.539 122.991 127.592 123.183 127.592H124.271V129H122.911C122.196 129 121.679 128.813 121.359 128.44C121.05 128.099 120.895 127.597 120.895 126.936V122.136H119.359V120.728H120.895V118.76L122.591 118.056ZM128.357 118.056V120.728H130.245V122.136H128.357V126.936C128.357 127.149 128.405 127.315 128.501 127.432C128.607 127.539 128.757 127.592 128.949 127.592H130.037V129H128.677C127.962 129 127.445 128.813 127.125 128.44C126.815 128.099 126.661 127.597 126.661 126.936V122.136H125.125V120.728H126.661V118.76L128.357 118.056ZM132.826 126.712C133.178 126.712 133.461 126.819 133.674 127.032C133.898 127.235 134.01 127.507 134.01 127.848C134.01 128.168 133.893 128.445 133.658 128.68C133.424 128.893 133.146 129 132.826 129C132.496 129 132.218 128.888 131.994 128.664C131.77 128.44 131.658 128.168 131.658 127.848C131.658 127.507 131.77 127.235 131.994 127.032C132.208 126.819 132.485 126.712 132.826 126.712ZM135.09 120.728H136.962L138.706 126.984L140.402 120.728H141.97L143.666 126.984L145.41 120.728H147.282L144.482 129H142.914L141.186 122.808L139.458 129H137.89L135.09 120.728ZM152.057 120.504C153.273 120.504 154.169 120.808 154.745 121.416C155.246 121.949 155.497 122.717 155.497 123.72V129H153.929V127.832C153.62 128.237 153.214 128.573 152.713 128.84C152.169 129.096 151.534 129.224 150.809 129.224C149.956 129.224 149.278 129.005 148.777 128.568C148.265 128.12 148.009 127.528 148.009 126.792C148.009 125.747 148.42 124.973 149.241 124.472C149.934 124.045 150.841 123.832 151.961 123.832L153.817 123.816V123.608C153.817 122.456 153.193 121.88 151.945 121.88C151.358 121.88 150.91 121.987 150.601 122.2C150.228 122.445 150.009 122.808 149.945 123.288H148.265C148.393 122.307 148.809 121.581 149.513 121.112C150.11 120.707 150.958 120.504 152.057 120.504ZM153.817 125.112L152.073 125.128C150.526 125.128 149.753 125.667 149.753 126.744C149.753 127.075 149.876 127.347 150.121 127.56C150.366 127.773 150.724 127.88 151.193 127.88C151.95 127.88 152.585 127.667 153.097 127.24C153.577 126.803 153.817 126.237 153.817 125.544V125.112ZM156.558 120.728H158.398L160.478 126.888L162.558 120.728H164.398L161.326 129H159.63L156.558 120.728Z" fill="#AD00FF"/>
<path d="M55.944 180.456H62.392C61.9867 179.699 61.4747 178.973 60.856 178.28L62.376 177.72C62.9627 178.509 63.5013 179.421 63.992 180.456H70.056V181.96H67.608C66.84 184.381 65.704 186.419 64.2 188.072C65.864 189.437 67.9333 190.568 70.408 191.464L69.56 192.744C66.9787 191.784 64.84 190.584 63.144 189.144C61.3413 190.744 59.1173 191.928 56.472 192.696L55.656 191.352C58.2373 190.68 60.376 189.619 62.072 188.168C60.312 186.408 59.0853 184.339 58.392 181.96H55.944V180.456ZM59.848 181.96C60.5307 183.944 61.624 185.667 63.128 187.128C64.4293 185.699 65.4 183.976 66.04 181.96H59.848ZM76.44 178.408C76.0453 179.667 75.5227 180.861 74.872 181.992V192.648H73.384V184.2C72.9893 184.712 72.5147 185.261 71.96 185.848L71.464 184.232C73.064 182.376 74.248 180.216 75.016 177.752L76.44 178.408ZM79.192 179.096C79.0533 179.885 78.904 180.568 78.744 181.144H80.664V177.944H82.184V181.144H85.72V182.632H82.184V186.072H86.312V187.544H82.184V192.584H80.664V187.544H76.12V186.072H80.664V182.632H78.248C77.8427 183.645 77.3573 184.563 76.792 185.384L75.816 184.12C76.7547 182.68 77.384 180.941 77.704 178.904L79.192 179.096ZM93.032 178.984V190.968H91.56V189.976H89.64V191.352H88.152V178.984H93.032ZM89.64 188.568H91.56V185.096H89.64V188.568ZM89.64 183.672H91.56V180.36H89.64V183.672ZM95.432 183.816C96.4347 185.341 97.1813 186.643 97.672 187.72L96.408 188.6C95.8427 187.405 95.096 186.072 94.168 184.6L95.432 183.816ZM96.088 192.488L95.752 191.016C96.7867 191.069 97.672 191.096 98.408 191.096C98.792 191.096 98.984 190.888 98.984 190.472V182.152H93.656V180.696H98.984V178.008H100.536V180.696H102.328V182.152H100.536V190.856C100.536 191.944 99.9973 192.488 98.92 192.488H96.088ZM103.928 183.96H107.048V177.96H108.584V183.96H118.12V185.432H113.032C113.693 187.768 115.459 189.608 118.328 190.952L117.432 192.392C114.189 190.685 112.232 188.365 111.56 185.432H108.584V190.728C109.693 190.44 110.797 190.104 111.896 189.72L112.28 191.144C110.691 191.688 108.968 192.168 107.112 192.584L106.648 191.176C106.915 191.027 107.048 190.797 107.048 190.488V185.432H103.928V183.96ZM116.52 179.08C115.251 180.509 113.336 181.8 110.776 182.952L109.864 181.736C112.381 180.648 114.259 179.416 115.496 178.04L116.52 179.08ZM121.176 182.856C121.528 182.856 121.811 182.963 122.024 183.176C122.248 183.379 122.36 183.651 122.36 183.992C122.36 184.312 122.243 184.589 122.008 184.824C121.773 185.037 121.496 185.144 121.176 185.144C120.845 185.144 120.568 185.032 120.344 184.808C120.12 184.584 120.008 184.312 120.008 183.992C120.008 183.651 120.12 183.379 120.344 183.176C120.557 182.963 120.835 182.856 121.176 182.856ZM121.176 188.712C121.528 188.712 121.811 188.819 122.024 189.032C122.248 189.235 122.36 189.507 122.36 189.848C122.36 190.168 122.243 190.445 122.008 190.68C121.773 190.893 121.496 191 121.176 191C120.845 191 120.568 190.888 120.344 190.664C120.12 190.44 120.008 190.168 120.008 189.848C120.008 189.507 120.12 189.235 120.344 189.032C120.557 188.819 120.835 188.712 121.176 188.712ZM133.488 179.352C134.832 179.352 135.872 179.917 136.608 181.048C137.28 182.104 137.616 183.517 137.616 185.288C137.616 187.059 137.28 188.472 136.608 189.528C135.861 190.659 134.821 191.224 133.488 191.224C132.154 191.224 131.114 190.659 130.368 189.528C129.696 188.472 129.36 187.059 129.36 185.288C129.36 183.496 129.696 182.083 130.368 181.048C131.104 179.917 132.144 179.352 133.488 179.352ZM133.488 180.824C132.549 180.824 131.888 181.341 131.504 182.376C131.226 183.059 131.088 184.029 131.088 185.288C131.088 186.536 131.226 187.507 131.504 188.2C131.888 189.235 132.549 189.752 133.488 189.752C134.426 189.752 135.088 189.235 135.472 188.2C135.749 187.464 135.888 186.493 135.888 185.288C135.888 184.061 135.749 183.091 135.472 182.376C135.088 181.341 134.426 180.824 133.488 180.824ZM143.081 179.352C144.425 179.352 145.465 179.917 146.201 181.048C146.873 182.104 147.209 183.517 147.209 185.288C147.209 187.059 146.873 188.472 146.201 189.528C145.455 190.659 144.415 191.224 143.081 191.224C141.748 191.224 140.708 190.659 139.961 189.528C139.289 188.472 138.953 187.059 138.953 185.288C138.953 183.496 139.289 182.083 139.961 181.048C140.697 179.917 141.737 179.352 143.081 179.352ZM143.081 180.824C142.143 180.824 141.481 181.341 141.097 182.376C140.82 183.059 140.681 184.029 140.681 185.288C140.681 186.536 140.82 187.507 141.097 188.2C141.481 189.235 142.143 189.752 143.081 189.752C144.02 189.752 144.681 189.235 145.065 188.2C145.343 187.464 145.481 186.493 145.481 185.288C145.481 184.061 145.343 183.091 145.065 182.376C144.681 181.341 144.02 180.824 143.081 180.824ZM155.379 182.856C155.731 182.856 156.014 182.963 156.227 183.176C156.451 183.379 156.563 183.651 156.563 183.992C156.563 184.312 156.446 184.589 156.211 184.824C155.976 185.037 155.699 185.144 155.379 185.144C155.048 185.144 154.771 185.032 154.547 184.808C154.323 184.584 154.211 184.312 154.211 183.992C154.211 183.651 154.323 183.379 154.547 183.176C154.76 182.963 155.038 182.856 155.379 182.856ZM155.379 188.712C155.731 188.712 156.014 188.819 156.227 189.032C156.451 189.235 156.563 189.507 156.563 189.848C156.563 190.168 156.446 190.445 156.211 190.68C155.976 190.893 155.699 191 155.379 191C155.048 191 154.771 190.888 154.547 190.664C154.323 190.44 154.211 190.168 154.211 189.848C154.211 189.507 154.323 189.235 154.547 189.032C154.76 188.819 155.038 188.712 155.379 188.712ZM167.867 179.352C168.976 179.352 169.877 179.667 170.571 180.296C171.264 180.936 171.611 181.757 171.611 182.76C171.611 183.731 171.237 184.632 170.491 185.464C170.043 185.923 169.253 186.536 168.123 187.304C166.896 188.115 166.16 188.835 165.915 189.464H171.627V191H163.755C163.755 189.859 164.133 188.861 164.891 188.008C165.285 187.539 166.144 186.845 167.467 185.928C168.245 185.373 168.789 184.936 169.099 184.616C169.621 184.029 169.883 183.405 169.883 182.744C169.883 182.104 169.707 181.624 169.355 181.304C169.003 180.984 168.485 180.824 167.803 180.824C167.077 180.824 166.533 181.069 166.171 181.56C165.797 182.029 165.595 182.728 165.563 183.656H163.819C163.84 182.376 164.208 181.352 164.923 180.584C165.648 179.763 166.629 179.352 167.867 179.352ZM177.284 179.352C178.628 179.352 179.668 179.917 180.404 181.048C181.076 182.104 181.412 183.517 181.412 185.288C181.412 187.059 181.076 188.472 180.404 189.528C179.658 190.659 178.618 191.224 177.284 191.224C175.951 191.224 174.911 190.659 174.164 189.528C173.492 188.472 173.156 187.059 173.156 185.288C173.156 183.496 173.492 182.083 174.164 181.048C174.9 179.917 175.94 179.352 177.284 179.352ZM177.284 180.824C176.346 180.824 175.684 181.341 175.3 182.376C175.023 183.059 174.884 184.029 174.884 185.288C174.884 186.536 175.023 187.507 175.3 188.2C175.684 189.235 176.346 189.752 177.284 189.752C178.223 189.752 178.884 189.235 179.268 188.2C179.546 187.464 179.684 186.493 179.684 185.288C179.684 184.061 179.546 183.091 179.268 182.376C178.884 181.341 178.223 180.824 177.284 180.824Z" fill="#AD00FF"/>
<path d="M719.368 24.832H722.176V20.344H724.408V24.832H726.688V27.016H724.408V28.048C725.368 29.008 726.328 30.088 727.288 31.288L725.992 33.232C725.4 32.08 724.872 31.12 724.408 30.352V42.352H722.176V31.672C721.52 33.608 720.704 35.424 719.728 37.12L718.744 34.6C720.28 32.408 721.408 29.88 722.128 27.016H719.368V24.832ZM730.072 27.856C729.224 28.704 728.368 29.432 727.504 30.04L726.28 28.12C729.048 26.152 731.176 23.568 732.664 20.368H734.776C736.024 23.296 738.192 25.872 741.28 28.096L740.032 30.016C739.104 29.344 738.264 28.648 737.512 27.928V29.2H730.072V27.856ZM736.696 27.088C735.496 25.76 734.504 24.272 733.72 22.624C732.856 24.32 731.872 25.808 730.768 27.088H736.696ZM726.832 39.592H735.064C735.96 37.144 736.76 34.08 737.464 30.4L739.624 30.952C739.016 34.072 738.24 36.952 737.296 39.592H740.728V41.8H726.832V39.592ZM729.904 31.048C730.56 33.192 731.12 35.52 731.584 38.032L729.592 38.56C729.144 36.176 728.592 33.896 727.936 31.72L729.904 31.048ZM733.504 30.208C734.08 32.08 734.616 34.312 735.112 36.904L733.048 37.456C732.68 35.216 732.184 33.008 731.56 30.832L733.504 30.208ZM744.784 20.704C746.096 21.776 747.216 22.864 748.144 23.968L746.656 25.456C745.808 24.4 744.672 23.304 743.248 22.168L744.784 20.704ZM744.4 26.584C745.728 27.784 746.816 28.952 747.664 30.088L746.2 31.576C745.368 30.456 744.256 29.28 742.864 28.048L744.4 26.584ZM747.976 33.904C747.128 36.768 746.152 39.528 745.048 42.184L742.984 41.296C744.2 38.56 745.224 35.84 746.056 33.136L747.976 33.904ZM757.216 21.448V36.28H755.2V23.392H750.712V36.424H748.696V21.448H757.216ZM754.648 37.264C756.024 38.496 757.192 39.736 758.152 40.984L756.64 42.472C755.856 41.288 754.736 39.992 753.28 38.584L754.648 37.264ZM752.032 24.784H753.904V32.32C753.824 35.104 753.384 37.312 752.584 38.944C751.8 40.448 750.512 41.64 748.72 42.52L747.544 40.624C749.24 39.808 750.4 38.776 751.024 37.528C751.632 36.184 751.968 34.448 752.032 32.32V24.784ZM759.496 42.28L759.016 40.168C759.832 40.264 760.624 40.312 761.392 40.312C761.888 40.312 762.136 40.016 762.136 39.424V20.464H764.272V39.952C764.272 41.504 763.56 42.28 762.136 42.28H759.496ZM758.632 22.432H760.624V37.264H758.632V22.432ZM775.888 39.496C773.376 40.376 770.6 41.088 767.56 41.632L767.272 39.424C770.568 38.896 773.44 38.2 775.888 37.336V39.496ZM773.224 21.016C772.056 23.96 770.888 26.32 769.72 28.096C770.632 28 771.568 27.88 772.528 27.736L773.872 25.192L775.864 25.912C773.784 29.736 772.072 32.48 770.728 34.144C772.36 33.808 773.984 33.352 775.6 32.776V34.816C772.944 35.712 770.408 36.32 767.992 36.64L767.392 34.6C767.792 34.44 768.136 34.224 768.424 33.952C769.24 33.088 770.216 31.704 771.352 29.8L767.584 30.328L767.032 28.24C767.352 28.096 767.664 27.816 767.968 27.4C769.2 25.176 770.24 22.776 771.088 20.2L773.224 21.016ZM775.528 23.104H781.072V20.392H783.352V23.104H788.872V25.312H783.352V28.336H788.176V30.544H776.32V28.336H781.072V25.312H775.528V23.104ZM787.672 32.416V42.4H785.464V41.44H779.128V42.4H776.896V32.416H787.672ZM779.128 39.28H785.464V34.576H779.128V39.28ZM793.672 21.136H810.256V30.832H803.152V32.608H812.632V34.72H804.976C806.656 36.656 809.392 38.408 813.184 39.976L811.6 41.968C807.616 39.808 804.8 37.424 803.152 34.816V42.424H800.848V34.792C799.056 37.688 796.176 40.072 792.208 41.944L790.888 39.832C794.52 38.504 797.224 36.8 799 34.72H791.368V32.608H800.848V30.832H793.672V21.136ZM807.976 28.864V27.016H803.152V28.864H807.976ZM800.848 28.864V27.016H795.952V28.864H800.848ZM795.952 25.048H800.848V23.152H795.952V25.048ZM803.152 23.152V25.048H807.976V23.152H803.152Z" fill="white"/>
</svg>
