<svg width="986" height="261" viewBox="0 0 986 261" fill="none" xmlns="http://www.w3.org/2000/svg">
<path d="M595.696 156.295L581.12 148.86C583.508 136.551 583.388 123.873 580.766 111.614L595.295 103.89C596.071 103.473 596.665 102.775 596.962 101.933C597.258 101.092 597.236 100.168 596.899 99.3424L587.299 76.2679C586.958 75.4365 586.32 74.7681 585.515 74.3975C584.709 74.0269 583.796 73.9816 582.959 74.2708L567.368 79.5643C560.588 69.2935 551.833 60.5346 541.635 53.8189L546.635 37.6258C546.901 36.7695 546.839 35.8424 546.463 35.0303C546.087 34.2182 545.424 33.5812 544.607 33.2467L521.869 23.7426C521.054 23.4059 520.146 23.3947 519.324 23.7113C518.502 24.028 517.827 24.6492 517.434 25.451L509.981 40.6335C497.932 38.1958 485.522 38.3022 473.515 40.9463L465.731 25.8119C465.326 25.0172 464.642 24.4075 463.816 24.1042C462.99 23.801 462.082 23.8265 461.273 24.1757L438.653 33.9445C437.852 34.3013 437.209 34.9502 436.851 35.7645C436.494 36.5788 436.447 37.4998 436.719 38.3477L442.073 54.7333C432.005 61.6296 423.417 70.5448 416.835 80.9357L400.937 75.8348C400.095 75.5569 399.18 75.6161 398.379 76.0003C397.577 76.3845 396.949 77.065 396.621 77.9041L387.446 101.147C387.121 101.978 387.113 102.903 387.423 103.74C387.733 104.577 388.338 105.266 389.12 105.671L404.004 113.274C401.631 125.401 401.704 137.893 404.216 149.991L389.215 157.955C388.438 158.377 387.843 159.079 387.546 159.925C387.25 160.77 387.273 161.698 387.611 162.527L397.211 185.577C397.547 186.407 398.181 187.075 398.982 187.446C399.784 187.816 400.694 187.862 401.527 187.574L417.496 182.161C424.298 192.592 433.129 201.486 443.441 208.291L438.441 224.484C438.175 225.34 438.237 226.267 438.613 227.08C438.989 227.892 439.652 228.529 440.469 228.863L463.231 238.271C464.045 238.608 464.954 238.619 465.776 238.302C466.598 237.986 467.273 237.364 467.665 236.563L475.119 221.38C487.031 223.758 499.293 223.644 511.16 221.043L518.779 235.913C519.18 236.712 519.863 237.325 520.691 237.629C521.519 237.933 522.429 237.904 523.237 237.549L545.857 227.78C546.647 227.429 547.283 226.794 547.644 225.995C548.005 225.197 548.066 224.291 547.815 223.449L542.649 207.617C552.89 200.689 561.618 191.678 568.288 181.15L583.856 186.155C584.695 186.426 585.604 186.363 586.4 185.979C587.196 185.596 587.821 184.919 588.149 184.085L597.371 160.891C597.722 160.052 597.744 159.107 597.433 158.252C597.121 157.397 596.5 156.696 595.696 156.295ZM461.698 208.772C446.636 202.537 433.725 191.887 424.596 178.168C415.467 164.45 410.53 148.278 410.409 131.698C410.288 115.117 414.989 98.8722 423.917 85.0163C432.844 71.1604 445.599 60.3157 460.568 53.8528C475.536 47.3899 492.048 45.599 508.014 48.7066C523.98 51.8141 538.685 59.6806 550.269 71.3116C561.854 82.9426 569.798 97.8159 573.098 114.052C576.397 130.287 574.904 147.157 568.807 162.527C564.755 172.741 558.77 182.04 551.193 189.894C543.616 197.747 534.596 203.999 524.648 208.294C514.701 212.589 504.021 214.842 493.22 214.924C482.418 215.006 471.707 212.916 461.698 208.772Z" fill="url(#paint0_linear_312_8937)"/>
<path d="M492.408 54.7094C477.62 54.7094 463.164 59.1827 450.868 67.5638C438.572 75.9448 428.988 87.8571 423.329 101.794C417.67 115.731 416.189 131.067 419.074 145.863C421.959 160.659 429.08 174.249 439.537 184.916C449.994 195.583 463.317 202.848 477.821 205.791C492.326 208.734 507.36 207.223 521.022 201.45C534.685 195.677 546.363 185.901 554.578 173.358C562.794 160.815 567.18 146.068 567.18 130.983C567.18 120.966 565.246 111.048 561.488 101.794C557.73 92.5403 552.223 84.132 545.28 77.0493C538.337 69.9667 530.094 64.3484 521.022 60.5153C511.951 56.6822 502.228 54.7094 492.408 54.7094ZM492.408 201.939C478.644 201.944 465.188 197.784 453.742 189.987C442.296 182.189 433.373 171.104 428.104 158.133C422.835 145.162 421.455 130.888 424.139 117.117C426.823 103.346 433.45 90.6965 443.183 80.7683C452.916 70.8401 465.316 64.0794 478.816 61.3414C492.316 58.6034 506.308 60.0111 519.024 65.3864C531.739 70.7617 542.606 79.8631 550.25 91.5394C557.894 103.216 561.972 116.942 561.967 130.983C561.967 149.802 554.638 167.85 541.594 181.156C528.549 194.463 510.857 201.939 492.408 201.939Z" fill="url(#paint1_linear_312_8937)"/>
<g opacity="0.4">
<path d="M409.075 83.6066C411.312 79.5024 413.851 75.5772 416.67 71.8648C414.736 70.4452 412.755 69.0737 410.773 67.7504C398.557 84.221 391.405 104.018 390.221 124.636C389.037 145.254 393.874 165.767 404.122 183.58C406.197 182.401 408.297 181.174 410.396 180.091C401.945 165.524 397.377 148.954 397.145 132.028C396.914 115.103 401.026 98.4095 409.075 83.6066Z" fill="url(#paint2_linear_312_8937)"/>
</g>
<g opacity="0.4">
<path d="M590.649 159.543C593.446 149.825 594.828 139.74 594.753 129.611C592.394 129.804 590.035 129.948 587.677 130.093C587.74 139.53 586.445 148.926 583.832 157.979L590.649 159.543Z" fill="url(#paint3_linear_312_8937)"/>
</g>
<g opacity="0.4">
<path d="M444.267 222.8C467.482 235.457 494.595 238.466 519.935 231.197C519.203 229.128 518.543 227.059 517.953 224.941C517.876 224.721 517.813 224.496 517.765 224.267C494.123 231.004 468.841 228.123 447.239 216.231C446.154 218.373 445.211 220.586 444.267 222.8Z" fill="url(#paint4_linear_312_8937)"/>
</g>
<g opacity="0.4">
<path d="M451.296 43.1358C472.703 32.6603 497.174 30.721 519.911 37.698C520.43 35.2919 521.019 32.8858 521.751 30.6722C497.041 23.1461 470.457 25.4059 447.31 37.0002C448.701 39.0214 450.046 41.0425 451.296 43.1358Z" fill="url(#paint5_linear_312_8937)"/>
</g>
<path d="M492.408 63.1307C479.253 63.1307 466.393 67.1102 455.454 74.5659C444.516 82.0216 435.99 92.6186 430.956 105.017C425.921 117.415 424.604 131.058 427.171 144.22C429.737 157.382 436.072 169.472 445.375 178.962C454.677 188.451 466.529 194.913 479.432 197.531C492.335 200.149 505.709 198.806 517.863 193.67C530.017 188.535 540.405 179.838 547.714 168.68C555.023 157.521 558.924 144.403 558.924 130.983C558.924 122.072 557.204 113.249 553.861 105.017C550.518 96.7848 545.619 89.3048 539.442 83.0042C533.266 76.7035 525.933 71.7056 517.863 68.2957C509.793 64.8858 501.143 63.1307 492.408 63.1307ZM492.408 196.646C479.671 196.65 467.218 192.801 456.625 185.585C446.032 178.369 437.775 168.111 432.898 156.107C428.021 144.104 426.744 130.894 429.228 118.15C431.712 105.406 437.845 93.6993 446.852 84.5114C455.859 75.3235 467.335 69.0669 479.828 66.5332C492.321 63.9994 505.271 65.3022 517.038 70.2769C528.805 75.2515 538.862 83.6745 545.935 94.4803C553.009 105.286 556.782 117.989 556.778 130.983C556.778 139.606 555.113 148.144 551.878 156.111C548.643 164.077 543.902 171.316 537.924 177.413C531.947 183.511 524.851 188.347 517.041 191.647C509.232 194.947 500.862 196.646 492.408 196.646Z" fill="url(#paint6_linear_312_8937)"/>
<path d="M732.36 43.6087H529.443V46.3276H731.331L777.301 94.0888H822.667L861.434 135.763H982.477V219.904L972.791 230.322H533.671V233.017H973.843L985.005 221.011V133.068H862.463L823.719 91.3699H778.308L732.36 43.6087Z" fill="url(#paint7_linear_312_8937)"/>
<path d="M604.807 121.951H838.259L849.6 133.645H604.807V121.951Z" fill="url(#paint8_linear_312_8937)"/>
<path d="M834.657 116.586L835.955 117.933H604.807V116.586H834.657Z" fill="url(#paint9_linear_312_8937)"/>
<path d="M604.807 110.691V106.24H824.636L828.953 110.691H604.807Z" fill="url(#paint10_linear_312_8937)"/>
<path d="M820.229 100.369L821.504 101.716H604.807V100.369H820.229Z" fill="url(#paint11_linear_312_8937)"/>
<path d="M912.258 230.611L889.754 254.816H544.945L526.58 235.062L525.685 236.001L544.431 256.164H890.291L913.153 231.573L912.258 230.611Z" fill="url(#paint12_linear_312_8937)"/>
<path d="M912.974 121.277H849.981V122.625H912.46L924.249 135.329L925.143 134.367L912.974 121.277Z" fill="url(#paint13_linear_312_8937)"/>
<path d="M822.511 231.189L821.616 232.151L835.217 246.78H898.769V245.409H835.731L822.511 231.189Z" fill="url(#paint14_linear_312_8937)"/>
<path d="M791.193 78.1596H765.244V79.507H790.678L802.109 91.8022L802.982 90.8398L791.193 78.1596Z" fill="url(#paint15_linear_312_8937)"/>
<path d="M751.509 54.7004H741.867V56.0719H750.994L772.603 79.3148L773.498 78.3524L751.509 54.7004Z" fill="url(#paint16_linear_312_8937)"/>
<g opacity="0.4">
<path d="M558.166 261L577.136 240.62H818.864L837.677 260.856L558.166 261Z" fill="url(#paint17_linear_312_8937)"/>
</g>
<g opacity="0.4">
<path d="M837.677 238.888L849.175 251.255H907.158L918.746 238.792L837.677 238.888Z" fill="url(#paint18_linear_312_8937)"/>
</g>
<path d="M821.392 252.699L815.263 259.292H703.838L697.687 252.699H821.392Z" fill="url(#paint19_linear_312_8937)"/>
<path d="M252.642 217.391H455.557V214.672H253.671L207.702 166.911H162.336L123.57 125.237H2.52783V41.0959L12.2138 30.6775H451.329V27.9827H11.1624L6.10352e-05 39.9891V127.932H122.541L161.285 169.63H206.695L252.642 217.391Z" fill="url(#paint20_linear_312_8937)"/>
<path d="M380.194 139.049H146.745L135.403 127.355H380.194V139.049Z" fill="url(#paint21_linear_312_8937)"/>
<path d="M150.346 144.414L149.049 143.067H380.194V144.414H150.346Z" fill="url(#paint22_linear_312_8937)"/>
<path d="M380.194 150.309V154.76H160.368L156.05 150.309H380.194Z" fill="url(#paint23_linear_312_8937)"/>
<path d="M164.775 160.631L163.499 159.284H380.194V160.631H164.775Z" fill="url(#paint24_linear_312_8937)"/>
<path d="M72.746 30.389L95.2498 6.1836H440.055L458.42 25.9377L459.315 24.9993L440.569 4.83618H94.713L71.8513 29.4266L72.746 30.389Z" fill="url(#paint25_linear_312_8937)"/>
<path d="M72.0301 139.723H135.023V138.375H72.5446L60.7558 125.671L59.861 126.633L72.0301 139.723Z" fill="url(#paint26_linear_312_8937)"/>
<path d="M162.493 29.8114L163.388 28.849L149.787 14.2198H86.2348V15.5913H149.272L162.493 29.8114Z" fill="url(#paint27_linear_312_8937)"/>
<path d="M193.81 182.84H219.759V181.493H194.325L182.894 169.198L182.021 170.16L193.81 182.84Z" fill="url(#paint28_linear_312_8937)"/>
<path d="M233.494 206.3H243.135V204.928H234.008L212.399 181.685L211.505 182.648L233.494 206.3Z" fill="url(#paint29_linear_312_8937)"/>
<g opacity="0.4">
<path d="M426.834 0L407.865 20.3797H166.139L147.326 0.144366L426.834 0Z" fill="url(#paint30_linear_312_8937)"/>
</g>
<g opacity="0.4">
<path d="M147.326 22.1121L135.828 9.74475H77.8461L66.2587 22.2084L147.326 22.1121Z" fill="url(#paint31_linear_312_8937)"/>
</g>
<path d="M163.611 8.30086L169.741 1.70813H281.163L287.315 8.30086H163.611Z" fill="url(#paint32_linear_312_8937)"/>
<defs>
<linearGradient id="paint0_linear_312_8937" x1="390.187" y1="30.4852" x2="600.321" y2="30.5683" gradientUnits="userSpaceOnUse">
<stop stop-color="#00FFF5" stop-opacity="0.6"/>
<stop offset="0.192708" stop-color="#00FFF5"/>
<stop offset="0.38963" stop-color="#00FFF5"/>
<stop offset="0.604167" stop-color="#00FFF5"/>
<stop offset="0.807292" stop-color="#00FFF5"/>
<stop offset="1" stop-color="#00FFF5" stop-opacity="0.6"/>
</linearGradient>
<linearGradient id="paint1_linear_312_8937" x1="419.763" y1="59.6773" x2="569.077" y2="59.7365" gradientUnits="userSpaceOnUse">
<stop stop-color="#00FFF5" stop-opacity="0.6"/>
<stop offset="0.192708" stop-color="#00FFF5"/>
<stop offset="0.38963" stop-color="#00FFF5"/>
<stop offset="0.604167" stop-color="#00FFF5"/>
<stop offset="0.807292" stop-color="#00FFF5"/>
<stop offset="1" stop-color="#00FFF5" stop-opacity="0.6"/>
</linearGradient>
<linearGradient id="paint2_linear_312_8937" x1="390.424" y1="71.5226" x2="417.008" y2="71.5251" gradientUnits="userSpaceOnUse">
<stop stop-color="#00FFF5" stop-opacity="0.6"/>
<stop offset="0.192708" stop-color="#00FFF5"/>
<stop offset="0.38963" stop-color="#00FFF5"/>
<stop offset="0.604167" stop-color="#00FFF5"/>
<stop offset="0.807292" stop-color="#00FFF5"/>
<stop offset="1" stop-color="#00FFF5" stop-opacity="0.6"/>
</linearGradient>
<linearGradient id="paint3_linear_312_8937" x1="583.987" y1="130.586" x2="594.894" y2="130.588" gradientUnits="userSpaceOnUse">
<stop stop-color="#00FFF5" stop-opacity="0.6"/>
<stop offset="0.192708" stop-color="#00FFF5"/>
<stop offset="0.38963" stop-color="#00FFF5"/>
<stop offset="0.604167" stop-color="#00FFF5"/>
<stop offset="0.807292" stop-color="#00FFF5"/>
<stop offset="1" stop-color="#00FFF5" stop-opacity="0.6"/>
</linearGradient>
<linearGradient id="paint4_linear_312_8937" x1="445.343" y1="216.845" x2="520.894" y2="216.968" gradientUnits="userSpaceOnUse">
<stop stop-color="#00FFF5" stop-opacity="0.6"/>
<stop offset="0.192708" stop-color="#00FFF5"/>
<stop offset="0.38963" stop-color="#00FFF5"/>
<stop offset="0.604167" stop-color="#00FFF5"/>
<stop offset="0.807292" stop-color="#00FFF5"/>
<stop offset="1" stop-color="#00FFF5" stop-opacity="0.6"/>
</linearGradient>
<linearGradient id="paint5_linear_312_8937" x1="448.368" y1="26.8532" x2="522.695" y2="26.986" gradientUnits="userSpaceOnUse">
<stop stop-color="#00FFF5" stop-opacity="0.6"/>
<stop offset="0.192708" stop-color="#00FFF5"/>
<stop offset="0.38963" stop-color="#00FFF5"/>
<stop offset="0.604167" stop-color="#00FFF5"/>
<stop offset="0.807292" stop-color="#00FFF5"/>
<stop offset="1" stop-color="#00FFF5" stop-opacity="0.6"/>
</linearGradient>
<linearGradient id="paint6_linear_312_8937" x1="427.783" y1="67.5502" x2="560.612" y2="67.6028" gradientUnits="userSpaceOnUse">
<stop stop-color="#00FFF5" stop-opacity="0.6"/>
<stop offset="0.192708" stop-color="#00FFF5"/>
<stop offset="0.38963" stop-color="#00FFF5"/>
<stop offset="0.604167" stop-color="#00FFF5"/>
<stop offset="0.807292" stop-color="#00FFF5"/>
<stop offset="1" stop-color="#00FFF5" stop-opacity="0.6"/>
</linearGradient>
<linearGradient id="paint7_linear_312_8937" x1="535.918" y1="226.849" x2="990.785" y2="226.407" gradientUnits="userSpaceOnUse">
<stop stop-color="#00FFF5" stop-opacity="0.6"/>
<stop offset="0.192708" stop-color="#00FFF5"/>
<stop offset="0.38963" stop-color="#00FFF5"/>
<stop offset="0.604167" stop-color="#00FFF5"/>
<stop offset="0.807292" stop-color="#00FFF5"/>
<stop offset="1" stop-color="#00FFF5" stop-opacity="0.6"/>
</linearGradient>
<linearGradient id="paint8_linear_312_8937" x1="608.286" y1="133.264" x2="852.689" y2="131.196" gradientUnits="userSpaceOnUse">
<stop stop-color="#00FFF5" stop-opacity="0.6"/>
<stop offset="0.192708" stop-color="#00FFF5"/>
<stop offset="0.38963" stop-color="#00FFF5"/>
<stop offset="0.604167" stop-color="#00FFF5"/>
<stop offset="0.807292" stop-color="#00FFF5"/>
<stop offset="1" stop-color="#00FFF5" stop-opacity="0.6"/>
</linearGradient>
<linearGradient id="paint9_linear_312_8937" x1="608.092" y1="117.889" x2="837.783" y2="101.966" gradientUnits="userSpaceOnUse">
<stop stop-color="#00FFF5" stop-opacity="0.6"/>
<stop offset="0.192708" stop-color="#00FFF5"/>
<stop offset="0.38963" stop-color="#00FFF5"/>
<stop offset="0.604167" stop-color="#00FFF5"/>
<stop offset="0.807292" stop-color="#00FFF5"/>
<stop offset="1" stop-color="#00FFF5" stop-opacity="0.6"/>
</linearGradient>
<linearGradient id="paint10_linear_312_8937" x1="607.993" y1="110.546" x2="831.704" y2="105.993" gradientUnits="userSpaceOnUse">
<stop stop-color="#00FFF5" stop-opacity="0.6"/>
<stop offset="0.192708" stop-color="#00FFF5"/>
<stop offset="0.38963" stop-color="#00FFF5"/>
<stop offset="0.604167" stop-color="#00FFF5"/>
<stop offset="0.807292" stop-color="#00FFF5"/>
<stop offset="1" stop-color="#00FFF5" stop-opacity="0.6"/>
</linearGradient>
<linearGradient id="paint11_linear_312_8937" x1="607.887" y1="101.672" x2="823.343" y2="87.6695" gradientUnits="userSpaceOnUse">
<stop stop-color="#00FFF5" stop-opacity="0.6"/>
<stop offset="0.192708" stop-color="#00FFF5"/>
<stop offset="0.38963" stop-color="#00FFF5"/>
<stop offset="0.604167" stop-color="#00FFF5"/>
<stop offset="0.807292" stop-color="#00FFF5"/>
<stop offset="1" stop-color="#00FFF5" stop-opacity="0.6"/>
</linearGradient>
<linearGradient id="paint12_linear_312_8937" x1="531.192" y1="255.332" x2="918.055" y2="252.961" gradientUnits="userSpaceOnUse">
<stop stop-color="#00FFF5" stop-opacity="0.6"/>
<stop offset="0.192708" stop-color="#00FFF5"/>
<stop offset="0.38963" stop-color="#00FFF5"/>
<stop offset="0.604167" stop-color="#00FFF5"/>
<stop offset="0.807292" stop-color="#00FFF5"/>
<stop offset="1" stop-color="#00FFF5" stop-opacity="0.6"/>
</linearGradient>
<linearGradient id="paint13_linear_312_8937" x1="851.049" y1="134.871" x2="926.097" y2="134.709" gradientUnits="userSpaceOnUse">
<stop stop-color="#00FFF5" stop-opacity="0.6"/>
<stop offset="0.192708" stop-color="#00FFF5"/>
<stop offset="0.38963" stop-color="#00FFF5"/>
<stop offset="0.604167" stop-color="#00FFF5"/>
<stop offset="0.807292" stop-color="#00FFF5"/>
<stop offset="1" stop-color="#00FFF5" stop-opacity="0.6"/>
</linearGradient>
<linearGradient id="paint14_linear_312_8937" x1="822.712" y1="246.272" x2="899.748" y2="246.118" gradientUnits="userSpaceOnUse">
<stop stop-color="#00FFF5" stop-opacity="0.6"/>
<stop offset="0.192708" stop-color="#00FFF5"/>
<stop offset="0.38963" stop-color="#00FFF5"/>
<stop offset="0.604167" stop-color="#00FFF5"/>
<stop offset="0.807292" stop-color="#00FFF5"/>
<stop offset="1" stop-color="#00FFF5" stop-opacity="0.6"/>
</linearGradient>
<linearGradient id="paint15_linear_312_8937" x1="765.78" y1="91.3579" x2="803.46" y2="91.3158" gradientUnits="userSpaceOnUse">
<stop stop-color="#00FFF5" stop-opacity="0.6"/>
<stop offset="0.192708" stop-color="#00FFF5"/>
<stop offset="0.38963" stop-color="#00FFF5"/>
<stop offset="0.604167" stop-color="#00FFF5"/>
<stop offset="0.807292" stop-color="#00FFF5"/>
<stop offset="1" stop-color="#00FFF5" stop-opacity="0.6"/>
</linearGradient>
<linearGradient id="paint16_linear_312_8937" x1="742.317" y1="78.5132" x2="773.9" y2="78.4968" gradientUnits="userSpaceOnUse">
<stop stop-color="#00FFF5" stop-opacity="0.6"/>
<stop offset="0.192708" stop-color="#00FFF5"/>
<stop offset="0.38963" stop-color="#00FFF5"/>
<stop offset="0.604167" stop-color="#00FFF5"/>
<stop offset="0.807292" stop-color="#00FFF5"/>
<stop offset="1" stop-color="#00FFF5" stop-opacity="0.6"/>
</linearGradient>
<linearGradient id="paint17_linear_312_8937" x1="562.139" y1="260.336" x2="841.215" y2="258.789" gradientUnits="userSpaceOnUse">
<stop stop-color="#00FFF5" stop-opacity="0.6"/>
<stop offset="0.192708" stop-color="#00FFF5"/>
<stop offset="0.38963" stop-color="#00FFF5"/>
<stop offset="0.604167" stop-color="#00FFF5"/>
<stop offset="0.807292" stop-color="#00FFF5"/>
<stop offset="1" stop-color="#00FFF5" stop-opacity="0.6"/>
</linearGradient>
<linearGradient id="paint18_linear_312_8937" x1="838.83" y1="250.849" x2="919.774" y2="250.637" gradientUnits="userSpaceOnUse">
<stop stop-color="#00FFF5" stop-opacity="0.6"/>
<stop offset="0.192708" stop-color="#00FFF5"/>
<stop offset="0.38963" stop-color="#00FFF5"/>
<stop offset="0.604167" stop-color="#00FFF5"/>
<stop offset="0.807292" stop-color="#00FFF5"/>
<stop offset="1" stop-color="#00FFF5" stop-opacity="0.6"/>
</linearGradient>
<linearGradient id="paint19_linear_312_8937" x1="699.445" y1="259.077" x2="822.954" y2="258.141" gradientUnits="userSpaceOnUse">
<stop stop-color="#00FFF5" stop-opacity="0.6"/>
<stop offset="0.192708" stop-color="#00FFF5"/>
<stop offset="0.38963" stop-color="#00FFF5"/>
<stop offset="0.604167" stop-color="#00FFF5"/>
<stop offset="0.807292" stop-color="#00FFF5"/>
<stop offset="1" stop-color="#00FFF5" stop-opacity="0.6"/>
</linearGradient>
<linearGradient id="paint20_linear_312_8937" x1="449.082" y1="34.1511" x2="-5.77941" y2="34.5932" gradientUnits="userSpaceOnUse">
<stop stop-color="#00FFF5" stop-opacity="0.6"/>
<stop offset="0.192708" stop-color="#00FFF5"/>
<stop offset="0.38963" stop-color="#00FFF5"/>
<stop offset="0.604167" stop-color="#00FFF5"/>
<stop offset="0.807292" stop-color="#00FFF5"/>
<stop offset="1" stop-color="#00FFF5" stop-opacity="0.6"/>
</linearGradient>
<linearGradient id="paint21_linear_312_8937" x1="376.714" y1="127.736" x2="132.315" y2="129.803" gradientUnits="userSpaceOnUse">
<stop stop-color="#00FFF5" stop-opacity="0.6"/>
<stop offset="0.192708" stop-color="#00FFF5"/>
<stop offset="0.38963" stop-color="#00FFF5"/>
<stop offset="0.604167" stop-color="#00FFF5"/>
<stop offset="0.807292" stop-color="#00FFF5"/>
<stop offset="1" stop-color="#00FFF5" stop-opacity="0.6"/>
</linearGradient>
<linearGradient id="paint22_linear_312_8937" x1="376.908" y1="143.111" x2="147.22" y2="159.034" gradientUnits="userSpaceOnUse">
<stop stop-color="#00FFF5" stop-opacity="0.6"/>
<stop offset="0.192708" stop-color="#00FFF5"/>
<stop offset="0.38963" stop-color="#00FFF5"/>
<stop offset="0.604167" stop-color="#00FFF5"/>
<stop offset="0.807292" stop-color="#00FFF5"/>
<stop offset="1" stop-color="#00FFF5" stop-opacity="0.6"/>
</linearGradient>
<linearGradient id="paint23_linear_312_8937" x1="377.008" y1="150.454" x2="153.299" y2="155.006" gradientUnits="userSpaceOnUse">
<stop stop-color="#00FFF5" stop-opacity="0.6"/>
<stop offset="0.192708" stop-color="#00FFF5"/>
<stop offset="0.38963" stop-color="#00FFF5"/>
<stop offset="0.604167" stop-color="#00FFF5"/>
<stop offset="0.807292" stop-color="#00FFF5"/>
<stop offset="1" stop-color="#00FFF5" stop-opacity="0.6"/>
</linearGradient>
<linearGradient id="paint24_linear_312_8937" x1="377.114" y1="159.328" x2="161.66" y2="173.33" gradientUnits="userSpaceOnUse">
<stop stop-color="#00FFF5" stop-opacity="0.6"/>
<stop offset="0.192708" stop-color="#00FFF5"/>
<stop offset="0.38963" stop-color="#00FFF5"/>
<stop offset="0.604167" stop-color="#00FFF5"/>
<stop offset="0.807292" stop-color="#00FFF5"/>
<stop offset="1" stop-color="#00FFF5" stop-opacity="0.6"/>
</linearGradient>
<linearGradient id="paint25_linear_312_8937" x1="453.808" y1="5.66836" x2="66.9498" y2="8.03895" gradientUnits="userSpaceOnUse">
<stop stop-color="#00FFF5" stop-opacity="0.6"/>
<stop offset="0.192708" stop-color="#00FFF5"/>
<stop offset="0.38963" stop-color="#00FFF5"/>
<stop offset="0.604167" stop-color="#00FFF5"/>
<stop offset="0.807292" stop-color="#00FFF5"/>
<stop offset="1" stop-color="#00FFF5" stop-opacity="0.6"/>
</linearGradient>
<linearGradient id="paint26_linear_312_8937" x1="133.955" y1="126.129" x2="58.9078" y2="126.291" gradientUnits="userSpaceOnUse">
<stop stop-color="#00FFF5" stop-opacity="0.6"/>
<stop offset="0.192708" stop-color="#00FFF5"/>
<stop offset="0.38963" stop-color="#00FFF5"/>
<stop offset="0.604167" stop-color="#00FFF5"/>
<stop offset="0.807292" stop-color="#00FFF5"/>
<stop offset="1" stop-color="#00FFF5" stop-opacity="0.6"/>
</linearGradient>
<linearGradient id="paint27_linear_312_8937" x1="162.291" y1="14.7276" x2="85.2562" y2="14.8817" gradientUnits="userSpaceOnUse">
<stop stop-color="#00FFF5" stop-opacity="0.6"/>
<stop offset="0.192708" stop-color="#00FFF5"/>
<stop offset="0.38963" stop-color="#00FFF5"/>
<stop offset="0.604167" stop-color="#00FFF5"/>
<stop offset="0.807292" stop-color="#00FFF5"/>
<stop offset="1" stop-color="#00FFF5" stop-opacity="0.6"/>
</linearGradient>
<linearGradient id="paint28_linear_312_8937" x1="219.222" y1="169.642" x2="181.543" y2="169.684" gradientUnits="userSpaceOnUse">
<stop stop-color="#00FFF5" stop-opacity="0.6"/>
<stop offset="0.192708" stop-color="#00FFF5"/>
<stop offset="0.38963" stop-color="#00FFF5"/>
<stop offset="0.604167" stop-color="#00FFF5"/>
<stop offset="0.807292" stop-color="#00FFF5"/>
<stop offset="1" stop-color="#00FFF5" stop-opacity="0.6"/>
</linearGradient>
<linearGradient id="paint29_linear_312_8937" x1="242.686" y1="182.487" x2="211.103" y2="182.503" gradientUnits="userSpaceOnUse">
<stop stop-color="#00FFF5" stop-opacity="0.6"/>
<stop offset="0.192708" stop-color="#00FFF5"/>
<stop offset="0.38963" stop-color="#00FFF5"/>
<stop offset="0.604167" stop-color="#00FFF5"/>
<stop offset="0.807292" stop-color="#00FFF5"/>
<stop offset="1" stop-color="#00FFF5" stop-opacity="0.6"/>
</linearGradient>
<linearGradient id="paint30_linear_312_8937" x1="422.862" y1="0.663704" x2="143.789" y2="2.21048" gradientUnits="userSpaceOnUse">
<stop stop-color="#00FFF5" stop-opacity="0.6"/>
<stop offset="0.192708" stop-color="#00FFF5"/>
<stop offset="0.38963" stop-color="#00FFF5"/>
<stop offset="0.604167" stop-color="#00FFF5"/>
<stop offset="0.807292" stop-color="#00FFF5"/>
<stop offset="1" stop-color="#00FFF5" stop-opacity="0.6"/>
</linearGradient>
<linearGradient id="paint31_linear_312_8937" x1="146.174" y1="10.1507" x2="65.2307" y2="10.3634" gradientUnits="userSpaceOnUse">
<stop stop-color="#00FFF5" stop-opacity="0.6"/>
<stop offset="0.192708" stop-color="#00FFF5"/>
<stop offset="0.38963" stop-color="#00FFF5"/>
<stop offset="0.604167" stop-color="#00FFF5"/>
<stop offset="0.807292" stop-color="#00FFF5"/>
<stop offset="1" stop-color="#00FFF5" stop-opacity="0.6"/>
</linearGradient>
<linearGradient id="paint32_linear_312_8937" x1="285.557" y1="1.92283" x2="162.049" y2="2.85938" gradientUnits="userSpaceOnUse">
<stop stop-color="#00FFF5" stop-opacity="0.6"/>
<stop offset="0.192708" stop-color="#00FFF5"/>
<stop offset="0.38963" stop-color="#00FFF5"/>
<stop offset="0.604167" stop-color="#00FFF5"/>
<stop offset="0.807292" stop-color="#00FFF5"/>
<stop offset="1" stop-color="#00FFF5" stop-opacity="0.6"/>
</linearGradient>
</defs>
</svg>
