<svg xmlns="http://www.w3.org/2000/svg" xmlns:xlink="http://www.w3.org/1999/xlink" width="36" height="29.009765625" viewBox="0 0 36 29.009765625" fill="none">
<g  clip-path="url(#clip-path-13_37025)">
<path d="M12.6 14.5075C16.5769 14.5075 19.8 11.2597 19.8 7.25373C19.8 3.24774 16.5769 0 12.6 0C8.62313 0 5.4 3.24774 5.4 7.25373C5.4 11.2597 8.62313 14.5075 12.6 14.5075ZM15.4519 17.2276L9.74813 17.2276C4.36331 17.2276 0 21.6252 0 27.0485C0 28.1365 0.873 29.0149 1.94963 29.0149L23.2481 29.0149C24.3281 29.0149 25.2 28.1365 25.2 27.0485C25.2 21.6252 20.835 17.2276 15.4519 17.2276Z"   fill="#0052D9" >
</path>
<g opacity="0.4">
<path d="M26.9496 18.1344L22.7955 18.1344C25.3802 20.2708 27.0002 23.467 27.0002 27.0485C27.0002 27.7739 26.7864 28.4426 26.4377 29.015L34.2002 29.015C35.1958 29.015 36.0002 28.1989 36.0002 27.1505C36.0002 22.1919 31.9727 18.1344 26.9496 18.1344ZM24.3002 14.5075C27.7821 14.5075 30.6002 11.6684 30.6002 8.16049C30.6002 4.65263 27.7821 1.81348 24.3002 1.81348C22.8877 1.81348 21.5979 2.29829 20.5472 3.08911C21.1952 4.34265 21.6002 5.74636 21.6002 7.25378C21.6002 9.26669 20.9291 11.1153 19.8232 12.621C20.9646 13.7821 22.5452 14.5075 24.3002 14.5075Z"   fill="#407DE3" >
</path>
</g>
</g>
<defs>
<clipPath id="clip-path-13_37025">
<path d="M0 29.01L36 29.01L36 0L0 0L0 29.01Z" fill="white"/>
</clipPath>
</defs>
</svg>
