<svg width="28" height="28" viewBox="0 0 28 28" fill="none" xmlns="http://www.w3.org/2000/svg">
<path d="M14.35 4.2666C18.6312 4.2666 22.1144 7.6826 22.2222 11.9386L22.225 12.1416V14.8086H20.475V12.1416C20.4738 10.5336 19.8403 8.99052 18.7112 7.84554C17.5822 6.70056 16.0481 6.0455 14.4403 6.02179C12.8324 5.99808 11.2798 6.60762 10.1174 7.71881C8.9551 8.83 8.27638 10.3537 8.22778 11.961L8.22498 12.1416V14.8086H6.47498V12.1416C6.47498 7.7925 10.0009 4.2666 14.35 4.2666Z" fill="#165DFF"/>
<path d="M16.3437 22.5967L15.846 20.9195C17.1512 20.5307 18.3007 19.7404 19.1311 18.6609C19.9615 17.5815 20.4305 16.2677 20.4716 14.9065L20.4744 14.7105V11.9105H22.2244V14.7105C22.2244 18.3064 19.8976 21.4458 16.5425 22.535L16.3437 22.5967ZM8.22505 16.9749V9.57945H6.94685C6.45698 9.57271 5.97064 9.66338 5.5161 9.84618C5.06156 10.029 4.64788 10.3003 4.29907 10.6443C3.95027 10.9884 3.67331 11.3983 3.48427 11.8503C3.29522 12.3022 3.19788 12.7873 3.19788 13.2772C3.19788 13.7671 3.29522 14.2522 3.48427 14.7041C3.67331 15.1561 3.95027 15.566 4.29907 15.9101C4.64788 16.2541 5.06156 16.5254 5.5161 16.7082C5.97064 16.891 6.45698 16.9817 6.94685 16.9749H8.22505ZM6.47435 11.3869V15.1669L6.37425 15.1389C5.9764 15.016 5.62837 14.7689 5.38116 14.4338C5.13396 14.0987 5.00059 13.6933 5.00059 13.2769C5.00059 12.8605 5.13396 12.455 5.38116 12.1199C5.62837 11.7848 5.9764 11.5377 6.37425 11.4149L6.47435 11.3869Z" fill="#165DFF"/>
<path d="M20.475 9.57945V16.9749H21.7532C22.2431 16.9817 22.7294 16.891 23.184 16.7082C23.6385 16.5254 24.0522 16.2541 24.401 15.9101C24.7498 15.566 25.0268 15.1561 25.2158 14.7041C25.4049 14.2522 25.5022 13.7671 25.5022 13.2772C25.5022 12.7873 25.4049 12.3022 25.2158 11.8503C25.0268 11.3983 24.7498 10.9884 24.401 10.6443C24.0522 10.3003 23.6385 10.029 23.184 9.84618C22.7294 9.66338 22.2431 9.57271 21.7532 9.57945H20.475ZM22.225 15.1676V11.3876L22.3258 11.4149C22.7237 11.5377 23.0717 11.7848 23.3189 12.1199C23.5661 12.455 23.6995 12.8605 23.6995 13.2769C23.6995 13.6933 23.5661 14.0987 23.3189 14.4338C23.0717 14.7689 22.7237 15.016 22.3258 15.1389L22.2257 15.1668L22.225 15.1676ZM15.4 18.9H13.3C12.6967 18.9 12.118 19.1396 11.6914 19.5663C11.2647 19.9929 11.025 20.5716 11.025 21.1749C11.025 21.7783 11.2647 22.357 11.6914 22.7836C12.118 23.2103 12.6967 23.4499 13.3 23.4499H15.4C16.0034 23.4499 16.582 23.2103 17.0087 22.7836C17.4353 22.357 17.675 21.7783 17.675 21.1749C17.675 20.5716 17.4353 19.9929 17.0087 19.5663C16.582 19.1396 16.0034 18.9 15.4 18.9ZM13.3 20.6499H15.4C15.5393 20.6499 15.6728 20.7053 15.7713 20.8037C15.8697 20.9022 15.925 21.0357 15.925 21.1749C15.925 21.3142 15.8697 21.4477 15.7713 21.5462C15.6728 21.6446 15.5393 21.6999 15.4 21.6999H13.3C13.1608 21.6999 13.0272 21.6446 12.9288 21.5462C12.8303 21.4477 12.775 21.3142 12.775 21.1749C12.775 21.0357 12.8303 20.9022 12.9288 20.8037C13.0272 20.7053 13.1608 20.6499 13.3 20.6499Z" fill="#165DFF"/>
</svg>
