<svg width="37" height="37" viewBox="0 0 37 37" fill="none" xmlns="http://www.w3.org/2000/svg">
<path d="M20.2377 27.8186C20.8739 27.5507 21.0766 26.7781 20.7314 26.1803C20.3863 25.5824 19.6238 25.3886 18.9769 25.6298C18.1417 25.9413 17.2545 26.1025 16.3564 26.1025C15.0399 26.1025 13.7466 25.756 12.6064 25.0977C11.4663 24.4395 10.5195 23.4927 9.86125 22.3525C9.20299 21.2124 8.85644 19.9191 8.85645 18.6025C8.85645 17.286 9.20299 15.9927 9.86126 14.8525C10.5195 13.7124 11.4663 12.7656 12.6064 12.1073C13.7466 11.4491 15.0399 11.1025 16.3564 11.1025C17.2545 11.1025 18.1417 11.2638 18.9769 11.5752C19.6238 11.8164 20.3863 11.6227 20.7314 11.0248C21.0766 10.427 20.8739 9.65441 20.2377 9.38647C19.013 8.87069 17.6937 8.60254 16.3564 8.60254C14.6011 8.60254 12.8766 9.0646 11.3564 9.94228C9.83625 10.82 8.57388 12.0823 7.69619 13.6025C6.81851 15.1227 6.35645 16.8472 6.35645 18.6025C6.35645 20.3579 6.81851 22.0823 7.69619 23.6025C8.57387 25.1227 9.83625 26.3851 11.3564 27.2628C12.8766 28.1405 14.6011 28.6025 16.3564 28.6025C17.6937 28.6025 19.013 28.3344 20.2377 27.8186Z" fill="#4E5969"/>
<path d="M24.3494 11.494L30.275 17.8369C30.6806 18.266 30.6806 18.9376 30.1897 19.3685L24.2641 25.7114C24.044 25.946 23.7468 26.0641 23.4496 26.0641C23.2165 26.0641 22.9414 25.9615 22.6808 25.7595C22.2306 25.3365 22.2088 24.6283 22.6328 24.178L26.825 19.7211H16.3643C15.7885 19.7211 15.2873 19.2174 15.2873 18.6018C15.2873 17.9862 15.7862 17.4825 16.3643 17.4825H26.867L22.7204 13.0274C22.2966 12.5769 22.3182 11.8685 22.7684 11.4459C23.2174 11.022 23.9254 11.0421 24.3494 11.494Z" fill="#4E5969"/>
</svg>
